<svg height="60" viewBox="0 0 56 60" width="60" xmlns="http://www.w3.org/2000/svg"><g id="Page-1" fill="#ffffff" fill-rule="evenodd"><g id="012---E-Reader" fill="rgb(255,255,255)" fill-rule="nonzero"><path id="Shape" d="m39 0h-34c-2.76005315.00330612-4.99669388 2.23994685-5 5v50c.00330612 2.7600532 2.23994685 4.9966939 5 5h47c1.1045695 0 2-.8954305 2-2v-1.838c-.0006239-1.987063.3198396-3.9611719.949-5.846.6964654-2.0887522 1.0513591-4.276194 1.051-6.478v-5.948c-.002349-1.3977566-.3260189-2.776262-.946-4.029l-1.2-2.375-.941-1.572c-.6825687-1.1375448-1.7902479-1.9562485-3.078-2.275-1.2603911-.318979-2.5957361-.1278047-3.716.532-.6464492-.3811514-1.3709875-.6105828-2.119-.671v-22.5c-.0033061-2.76005315-2.2399468-4.99669388-5-5zm-3.67 29.638-2.093-3.638h1.763c.5522847 0 1-.4477153 1-1s-.4477153-1-1-1h-2.914l-.013-.021c-.6508974-1.2241628-1.9258893-1.987503-3.3123318-1.9830996-1.3864424.0044034-2.6565598.775827-3.2996682 2.0040996h-16.461c-.55228475 0-1 .4477153-1 1s.44771525 1 1 1h16.022c.0283619.4771034.1453577.9447478.345 1.379l.818 1.621h-17.185c-.55228475 0-1 .4477153-1 1s.44771525 1 1 1h18.2l1.327 2.631c-.5498341.3592678-1.0224042.8246983-1.39 1.369h-18.137c-.55228475 0-1 .4477153-1 1s.44771525 1 1 1h17.364c-.0695188.4128777-.0859855.8329473-.049 1.25l.52 5.161c.1353585 1.350314.8189484 2.5859091 1.891 3.418l4.074 3.171h-26.8v-44h32v22.536c-.6878131.0840036-1.3503872.3112205-1.945.667zm-30.33 28.362c-1.65685425 0-3-1.3431458-3-3v-50c0-1.65685425 1.34314575-3 3-3h34c1.6568542 0 3 1.34314575 3 3v22.772c-.3278989.110272-.6435651.2540308-.942.429l-.9.534c-.053-.018-.107-.032-.161-.048v-23.687c0-.55228475-.4477153-1-1-1h-33.997c-.55228475 0-1 .44771525-1 1v46c0 .5522847.44771525 1 1 1h30.37l.63.49v5.51zm46.2-27.056.9 1.5 1.158 2.3c.4859245.9776701.7398372 2.0542323.742 3.146v5.948c.0006239 1.987063-.3198396 3.9611719-.949 5.846-.6964654 2.0887522-1.0513591 4.276194-1.051 6.478v1.838h-14v-5.51c.0039416-.6190572-.2834911-1.2039236-.776-1.579l-7.275-5.664c-.6381742-.4961148-1.0445522-1.2325845-1.124-2.037l-.52-5.16c-.1007349-1.0090708.3237065-1.9991824 1.124-2.622l2.678 5.305c.1700994.3375641.5160011.5503671.894.55.1564393.0001712.3106787-.0368462.45-.108.4928024-.2489005.6906572-.8500749.442-1.343l-6.727-13.326c-.2041713-.4390291-.2187967-.9427052-.0404442-1.3928418.1783524-.4501365.5339831-.8071103.9834442-.9871582.8412187-.334165 1.7988732.0222017 2.217.825l3.783 6.575v.008.006l3.016 5.241c.1786328.3097493.5089456.5006699.8665127.500844s.6880657-.1904248.867-.5c.1789343-.3095751.1791201-.6910947.0004873-1.000844l-2.539-4.412.758-.456c.8411864-.5068416 1.8780844-.5666914 2.772-.16.5635783.245895 1.0357677.662471 1.35 1.191l.94 1.57c.1836345.3065339.5168537.491815.8741371.4860498.3572833-.0057652.6843511-.2017009.858-.514.1736488-.3122991.1674974-.6935159-.0161371-1.0000498l-.941-1.572c-.2270223-.3688866-.5006058-.7070008-.814-1.006 1.071452-.6370263 2.4265295-.5380106 3.394.248.2822008.2148147.519945.4824467.7.788l.94 1.57c.2838744.4738603.8981397.6278744 1.372.344s.6278744-.8981397.344-1.372l-.942-1.573c-.061-.1-.137-.181-.2-.275 1.3257062-.4261062 2.7704879.1143936 3.491 1.306z"/><path id="Shape" d="m25 54h-6c-.5522847 0-1 .4477153-1 1s.4477153 1 1 1h6c.5522847 0 1-.4477153 1-1s-.4477153-1-1-1z"/><path id="Shape" d="m17 11h10c.5522847 0 1-.4477153 1-1 0-.55228475-.4477153-1-1-1h-10c-.5522847 0-1 .44771525-1 1 0 .5522847.4477153 1 1 1z"/><path id="Shape" d="m35 14h-26c-.55228475 0-1 .4477153-1 1s.44771525 1 1 1h26c.5522847 0 1-.4477153 1-1s-.4477153-1-1-1z"/><path id="Shape" d="m35 19h-26c-.55228475 0-1 .4477153-1 1s.44771525 1 1 1h26c.5522847 0 1-.4477153 1-1s-.4477153-1-1-1z"/><path id="Shape" d="m9 42h13c.5522847 0 1-.4477153 1-1s-.4477153-1-1-1h-13c-.55228475 0-1 .4477153-1 1s.44771525 1 1 1z"/><path id="Shape" d="m21 45c-.5522847 0-1 .4477153-1 1s.4477153 1 1 1h2c.5522847 0 1-.4477153 1-1s-.4477153-1-1-1z"/></g></g></svg>