<svg width="460" height="318" viewBox="0 0 460 318" fill="none" xmlns="http://www.w3.org/2000/svg">
<g clip-path="url(#clip0)">
<path d="M61.791 229.324L55.8775 219.768C57.7881 214.805 59.9771 209.953 62.4342 205.236L66.3167 208.504L63.2889 203.611C66.385 197.809 68.8027 194.162 68.8027 194.162C68.8027 194.162 80.655 213.698 84.3334 234.203L76.2577 246.149L85.0691 239.321C85.33 241.706 85.4407 244.105 85.4004 246.505C84.9135 270.692 76.6194 290.141 66.8748 289.945C57.1303 289.748 49.6254 269.982 50.1123 245.794C50.2632 238.296 52.1174 230.485 54.6035 223.276L61.791 229.324Z" fill="#E6E6E6"/>
<path d="M35.0324 239.991L25.031 234.868C24.101 229.631 23.4671 224.346 23.1323 219.038L28.1446 219.828L23.0238 217.205C22.675 210.638 22.8598 206.267 22.8598 206.267C22.8598 206.267 43.1038 216.863 56.8518 232.515L56.1138 246.916L60.1271 236.516C61.5834 238.423 62.9183 240.42 64.1239 242.494C76.2096 263.452 79.1625 284.388 70.7194 289.257C62.2762 294.126 45.6343 281.084 33.5485 260.127C29.8019 253.63 27.3518 245.985 25.7533 238.528L35.0324 239.991Z" fill="#E6E6E6"/>
<path d="M85.2508 317.34C73.7265 318.077 61.1697 317.297 47.8113 317.34V286.756C59.5823 288.588 72.1349 288.4 85.2508 286.756V317.34Z" fill="#E6E6E6"/>
<path d="M356.896 177.45L234.594 197.142L234.076 78.2441L356.378 0L356.896 177.45Z" fill="#E6E6E6"/>
<path d="M345.495 159.83L239.776 182.632V83.132L345.495 25.7525V159.83Z" fill="white"/>
<path d="M335.131 68.622L245.995 108.538V94.533L335.131 50.4989V68.622Z" fill="#3F3D56"/>
<path d="M335.131 105.934L245.995 137.373V123.554L335.131 88.0521V105.934Z" fill="#27359E"/>
<path d="M280.433 88.6201C280.45 88.5494 280.49 88.4863 280.547 88.4404C280.603 88.3945 280.673 88.3684 280.746 88.366C280.819 88.3636 280.891 88.3851 280.95 88.4271C281.009 88.4692 281.054 88.5295 281.076 88.5989L282.519 93.1474L284.248 98.5964C284.273 98.676 284.268 98.7622 284.232 98.838C284.197 98.9138 284.135 98.9736 284.058 99.0057L280.717 100.398L277.78 101.622C277.723 101.645 277.661 101.653 277.599 101.643C277.538 101.634 277.481 101.607 277.434 101.567C277.387 101.527 277.352 101.474 277.334 101.415C277.315 101.356 277.313 101.293 277.327 101.233L278.933 94.7099L280.433 88.6201Z" fill="#E6E6E6"/>
<path d="M275.072 122.535C275.101 122.418 275.167 122.314 275.26 122.238C275.354 122.162 275.469 122.119 275.589 122.115C275.709 122.111 275.828 122.147 275.926 122.216C276.024 122.286 276.097 122.385 276.133 122.5L277.343 126.312L279.011 131.572C279.053 131.703 279.044 131.845 278.986 131.97C278.928 132.095 278.825 132.194 278.698 132.247L275.541 133.563L273.001 134.621C272.907 134.66 272.804 134.673 272.703 134.657C272.602 134.641 272.508 134.597 272.431 134.531C272.353 134.464 272.296 134.378 272.264 134.281C272.233 134.183 272.23 134.079 272.254 133.98L273.757 127.875L275.072 122.535Z" fill="#E6E6E6"/>
<path d="M335.131 143.247L245.995 166.208V151.538L335.131 124.265V143.247Z" fill="#F2F2F2"/>
<path d="M333.058 78.7033C333.058 81.8244 331.659 84.9276 329.948 85.6289C328.252 86.3241 326.888 84.3931 326.888 81.3214C326.888 78.2497 328.252 75.161 329.948 74.4167C331.659 73.6658 333.058 75.5822 333.058 78.7033Z" fill="#3F3D56"/>
<path d="M330.985 79.5829C330.985 80.6233 330.52 81.6616 329.948 81.9014C329.378 82.1406 328.917 81.4951 328.917 80.4603C328.917 79.4255 329.378 78.3888 329.948 78.1441C330.52 77.8987 330.985 78.5426 330.985 79.5829Z" fill="white"/>
<path d="M333.058 114.979C333.058 118.1 331.659 121.204 329.948 121.905C328.252 122.6 326.888 120.669 326.888 117.597C326.888 114.526 328.252 111.437 329.948 110.693C331.659 109.942 333.058 111.858 333.058 114.979Z" fill="#27359E"/>
<path d="M330.985 115.859C330.985 116.899 330.52 117.938 329.948 118.177C329.378 118.417 328.917 117.771 328.917 116.736C328.917 115.701 329.378 114.665 329.948 114.42C330.52 114.175 330.985 114.819 330.985 115.859Z" fill="white"/>
<path d="M333.058 151.255C333.058 154.376 331.659 157.479 329.948 158.181C328.252 158.876 326.888 156.945 326.888 153.873C326.888 150.802 328.252 147.713 329.948 146.968C331.659 146.218 333.058 148.134 333.058 151.255Z" fill="#F2F2F2"/>
<path d="M330.985 152.135C330.985 153.175 330.52 154.213 329.948 154.453C329.378 154.692 328.917 154.047 328.917 153.012C328.917 151.977 329.378 150.941 329.948 150.696C330.52 150.451 330.985 151.094 330.985 152.135Z" fill="white"/>
<path d="M283.358 152.593C283.386 152.477 283.453 152.373 283.546 152.297C283.639 152.221 283.755 152.178 283.875 152.174C283.995 152.17 284.113 152.206 284.211 152.275C284.309 152.344 284.382 152.444 284.418 152.558L285.628 156.371L287.297 161.63C287.339 161.762 287.33 161.904 287.272 162.029C287.214 162.154 287.111 162.253 286.984 162.306L283.826 163.622L281.287 164.68C281.193 164.719 281.09 164.731 280.989 164.715C280.888 164.699 280.794 164.656 280.716 164.589C280.639 164.523 280.581 164.436 280.55 164.339C280.519 164.242 280.515 164.138 280.54 164.039L282.043 157.934L283.358 152.593Z" fill="#E6E6E6"/>
<path d="M262.319 146.217L267.141 141.769C267.141 141.769 278.056 134.251 274.244 130.118C270.431 125.985 262.747 135.623 262.747 135.623L257.979 138.747L262.319 146.217Z" fill="#A0616A"/>
<path d="M198.568 148.287L195.76 152.153C195.76 152.153 191.834 167.248 211.698 168.049C211.698 168.049 237.067 180.348 243.347 172.643C249.626 164.938 266.954 146.404 266.954 146.404L256.761 136.045L235.989 157.755L215.837 147.657C215.837 147.657 205.457 141.933 198.568 148.287Z" fill="#2F2E41"/>
<path d="M185.349 219.919L159.049 316.817L162.362 317.479L189.988 219.919H185.349Z" fill="#E6E6E6"/>
<path d="M217.234 219.919L243.533 316.817L240.22 317.479L212.595 219.919H217.234Z" fill="#E6E6E6"/>
<path d="M199.265 217.931L203.675 316.979L207.505 317.149L202.579 216.605L199.265 217.931Z" fill="#E6E6E6"/>
<path d="M211.524 216.363C211.524 218.876 204.647 221.573 195.62 222.439C185.932 223.369 177.542 221.859 177.542 219.004C177.542 216.148 185.932 213.334 195.62 212.759C204.647 212.223 211.524 213.851 211.524 216.363Z" fill="#E6E6E6"/>
<path d="M221.133 199.376L227.76 204.015C227.76 204.015 256.254 224.557 253.603 232.509C250.953 240.461 236.374 272.269 236.374 272.269L217.82 266.305L239.025 232.509L227.76 221.906L221.796 207.328L221.133 199.376Z" fill="#2F2E41"/>
<path d="M195.289 187.448C195.289 187.448 182.036 207.99 189.988 213.954C197.94 219.918 220.47 243.112 220.47 243.112L225.109 253.714L241.675 307.39L262.218 296.787L243.663 255.039C243.663 255.039 241.675 239.798 235.049 231.184C228.422 222.569 225.772 209.978 225.772 209.978L227.76 204.014L215.894 185.029L195.289 187.448Z" fill="#2F2E41"/>
<path d="M231.326 268.471L219.416 264.847C219.416 264.847 206.554 264.317 207.217 268.955C207.88 273.594 218.482 304.077 221.796 302.089C225.109 300.101 222.458 290.823 222.458 290.823L231.326 268.471Z" fill="#2F2E41"/>
<path d="M204.897 122.838L198.271 130.128L208.874 147.357L213.512 134.104L204.897 122.838Z" fill="#A0616A"/>
<path d="M211.193 148.351L199.423 128.86L195.289 129.796V136.423L193.964 192.087L215.832 188.773C215.832 188.773 217.157 152.989 211.193 148.351Z" fill="#27359E"/>
<path d="M205.229 147.688L195.289 129.796L186.675 133.772L171.433 196.063L162.156 213.954C162.156 213.954 192.638 229.196 199.928 213.954C207.217 198.713 207.88 164.917 207.88 164.917L205.229 147.688Z" fill="#2F2E41"/>
<path d="M190.65 136.423L186.674 133.772C186.674 133.772 171.433 130.459 171.433 150.339C171.433 150.339 160.168 176.183 168.12 182.147C176.072 188.111 195.289 204.677 195.289 204.677L205.229 194.075L182.698 174.195L191.976 153.652C191.976 153.652 197.277 143.049 190.65 136.423Z" fill="#2F2E41"/>
<path d="M195.289 200.039L199.928 204.677C199.928 204.677 207.88 215.28 211.856 211.304C215.832 207.328 205.892 200.039 205.892 200.039L202.578 195.4L195.289 200.039Z" fill="#A0616A"/>
<path d="M210.425 142.337L221.796 170.219C221.796 170.219 226.434 184.135 226.434 189.436V204.014L213.844 187.448C213.844 187.448 207.006 144.275 210.425 142.337Z" fill="#2F2E41"/>
<path d="M246.628 302.105C246.628 302.105 243.346 315.031 247.654 316.125C251.963 317.219 288.113 318.145 288.136 312.035C288.159 305.926 264.674 300.879 264.674 300.879L255.998 295.312L246.628 302.105Z" fill="#2F2E41"/>
<path d="M213.181 135.098C219.769 135.098 225.109 129.757 225.109 123.17C225.109 116.582 219.769 111.242 213.181 111.242C206.593 111.242 201.253 116.582 201.253 123.17C201.253 129.757 206.593 135.098 213.181 135.098Z" fill="#A0616A"/>
<path d="M225.9 121.028C225.9 121.028 228.23 110.932 225.9 108.602V110.155C225.9 110.155 224.347 104.719 221.24 106.272C221.24 106.272 217.357 103.165 216.58 104.719C212.011 100.587 191.748 104.46 201.584 126.152C201.584 126.152 203.378 119.475 203.378 121.805C203.378 121.805 208.038 117.145 208.814 115.592C209.591 114.038 222.794 124.134 225.9 121.028Z" fill="#2F2E41"/>
<path d="M459.848 316.752H0V317.913H459.848V316.752Z" fill="#3F3D56"/>
</g>
<defs>
<clipPath id="clip0">
<rect width="459.848" height="317.913" fill="white"/>
</clipPath>
</defs>
</svg>
