<svg width="349" height="266" viewBox="0 0 349 266" fill="none" xmlns="http://www.w3.org/2000/svg">
<g clip-path="url(#clip0)">
<path d="M49.7211 156.809C61.9027 156.809 71.7778 146.934 71.7778 134.752C71.7778 122.571 61.9027 112.696 49.7211 112.696C37.5395 112.696 27.6644 122.571 27.6644 134.752C27.6644 146.934 37.5395 156.809 49.7211 156.809Z" fill="#FF6584"/>
<path d="M94.8906 259.338H94.8682C94.0916 259.337 93.347 259.028 92.7978 258.479C92.2486 257.93 91.9397 257.185 91.9388 256.409V84.4357C91.9397 83.659 92.2486 82.9144 92.7978 82.3653C93.347 81.8161 94.0916 81.5072 94.8682 81.5063H239.615C240.392 81.5072 241.136 81.8161 241.686 82.3652C242.235 82.9144 242.544 83.659 242.545 84.4357V218.154C242.544 218.927 242.238 219.668 241.694 220.217C241.149 220.765 240.411 221.077 239.638 221.083L94.8906 259.338Z" fill="#F2F2F2"/>
<path d="M201.878 57.2095H134.674V18.2657C134.675 17.4433 135.002 16.6549 135.583 16.0735C136.165 15.492 136.953 15.1649 137.775 15.164H198.776C199.598 15.1649 200.387 15.492 200.968 16.0735C201.55 16.6549 201.877 17.4433 201.878 18.2657V57.2095ZM135.363 56.5202H201.188V18.2657C201.188 17.6261 200.933 17.0129 200.481 16.5606C200.029 16.1083 199.416 15.8539 198.776 15.8532H137.775C137.136 15.8539 136.523 16.1083 136.07 16.5606C135.618 17.0129 135.364 17.6261 135.363 18.2657V56.5202Z" fill="#3F3D56"/>
<path d="M153.801 29.9833H182.75C183.481 29.9833 184.183 30.2738 184.7 30.7908C185.217 31.3079 185.507 32.0091 185.507 32.7404V74.0966H151.044V32.7404C151.044 32.0091 151.334 31.3079 151.851 30.7908C152.368 30.2738 153.07 29.9833 153.801 29.9833Z" fill="#E6E6E6"/>
<path d="M159.487 15.8532H145.357V1.72318C145.358 1.26632 145.54 0.828329 145.863 0.505284C146.186 0.182239 146.624 0.000522657 147.081 0H157.764C158.221 0.000522657 158.659 0.182239 158.982 0.505284C159.305 0.828329 159.487 1.26632 159.487 1.72318V15.8532ZM146.047 15.164H158.798V1.72318C158.798 1.44906 158.689 1.18626 158.495 0.992426C158.301 0.798595 158.038 0.68957 157.764 0.689271H147.081C146.806 0.68957 146.544 0.798595 146.35 0.992426C146.156 1.18626 146.047 1.44906 146.047 1.72318V15.164Z" fill="#3F3D56"/>
<path d="M275.599 223.613C275.461 223.613 275.327 223.613 275.19 223.61C266.664 223.515 258.466 220.311 252.136 214.599C251.902 214.385 251.67 214.17 251.439 213.951L251.333 213.849V147.799L251.366 147.729C251.594 147.245 251.825 146.769 252.057 146.292C259.225 131.738 267.586 123.724 275.599 123.724C287.154 123.724 296.116 139.575 300.429 149.024C306.428 162.163 310.617 178.443 310.617 188.616C310.614 197.831 306.978 206.673 300.497 213.225C294.016 219.776 285.213 223.508 275.999 223.61C275.87 223.613 275.732 223.613 275.599 223.613ZM252.022 213.554C252.213 213.734 252.406 213.912 252.599 214.088C258.805 219.688 266.843 222.829 275.203 222.921C275.342 222.924 275.474 222.92 275.608 222.924C275.733 222.924 275.861 222.924 275.986 222.921C294.704 222.713 309.928 207.324 309.928 188.616C309.928 178.532 305.764 162.369 299.802 149.31C295.558 140.012 286.769 124.413 275.599 124.413C267.862 124.413 259.721 132.291 252.676 146.595C252.457 147.045 252.238 147.496 252.022 147.953L252.022 213.554Z" fill="#3F3D56"/>
<path d="M275.597 265.4C275.492 265.4 275.391 265.358 275.317 265.283C275.242 265.209 275.201 265.108 275.201 265.003V184.059C275.2 184.007 275.21 183.955 275.23 183.907C275.25 183.858 275.279 183.814 275.316 183.777C275.353 183.74 275.397 183.711 275.445 183.691C275.493 183.671 275.545 183.66 275.597 183.66C275.649 183.66 275.701 183.671 275.749 183.691C275.798 183.711 275.841 183.74 275.878 183.777C275.915 183.814 275.944 183.858 275.964 183.907C275.984 183.955 275.994 184.007 275.994 184.059V265.003C275.994 265.108 275.952 265.209 275.877 265.283C275.803 265.358 275.702 265.4 275.597 265.4Z" fill="#CCCCCC"/>
<path d="M69.8498 265.4C69.7446 265.4 69.6437 265.358 69.5694 265.283C69.495 265.209 69.4533 265.108 69.4533 265.003V184.059C69.4529 184.007 69.463 183.955 69.4828 183.907C69.5025 183.858 69.5317 183.814 69.5686 183.777C69.6054 183.74 69.6492 183.711 69.6975 183.691C69.7457 183.671 69.7975 183.66 69.8497 183.66C69.902 183.66 69.9538 183.671 70.002 183.691C70.0503 183.711 70.0941 183.74 70.131 183.777C70.1678 183.814 70.197 183.858 70.2167 183.907C70.2365 183.955 70.2466 184.007 70.2463 184.059V265.003C70.2462 265.108 70.2045 265.209 70.1301 265.283C70.0558 265.358 69.9549 265.4 69.8498 265.4Z" fill="#CCCCCC"/>
<path d="M275.597 199.182C275.54 199.182 275.484 199.17 275.432 199.147C275.381 199.123 275.335 199.089 275.297 199.046L255.356 176.048C255.287 175.969 255.253 175.865 255.26 175.76C255.268 175.655 255.317 175.558 255.396 175.489C255.475 175.42 255.579 175.386 255.683 175.393C255.788 175.401 255.886 175.449 255.955 175.528L275.897 198.526C275.946 198.583 275.979 198.654 275.99 198.729C276 198.804 275.989 198.881 275.958 198.95C275.926 199.019 275.876 199.078 275.812 199.119C275.748 199.16 275.673 199.182 275.597 199.182V199.182Z" fill="#CCCCCC"/>
<path d="M275.597 212.455C275.519 212.455 275.442 212.431 275.377 212.388C275.312 212.344 275.261 212.282 275.231 212.21C275.201 212.137 275.193 212.058 275.208 211.981C275.223 211.904 275.261 211.833 275.317 211.778L286.648 200.446C286.722 200.372 286.823 200.331 286.928 200.331C287.033 200.331 287.134 200.373 287.208 200.447C287.282 200.521 287.324 200.622 287.324 200.727C287.324 200.832 287.283 200.932 287.209 201.007L275.877 212.338C275.841 212.375 275.797 212.405 275.749 212.425C275.701 212.444 275.649 212.455 275.597 212.455Z" fill="#CCCCCC"/>
<path d="M312.282 265.563H282.642V265.219C282.641 263.272 283.024 261.344 283.768 259.545C284.512 257.746 285.604 256.112 286.98 254.735C288.356 253.358 289.991 252.266 291.789 251.52C293.588 250.775 295.515 250.391 297.462 250.391C299.409 250.391 301.337 250.775 303.135 251.52C304.934 252.266 306.568 253.358 307.944 254.735C309.32 256.112 310.412 257.746 311.156 259.545C311.901 261.344 312.283 263.272 312.282 265.219L312.282 265.563ZM283.335 264.874H311.589C311.499 261.187 309.971 257.681 307.332 255.106C304.692 252.53 301.15 251.088 297.462 251.088C293.774 251.088 290.232 252.53 287.593 255.106C284.953 257.681 283.425 261.187 283.335 264.874H283.335Z" fill="#3F3D56"/>
<path d="M297.462 256.807C297.358 256.807 297.259 256.849 297.186 256.922C297.112 256.995 297.071 257.095 297.071 257.199V261.355L293.022 257.88C292.983 257.846 292.938 257.821 292.889 257.804C292.84 257.788 292.789 257.782 292.738 257.786C292.686 257.79 292.636 257.804 292.59 257.827C292.544 257.85 292.503 257.882 292.47 257.921C292.436 257.96 292.411 258.005 292.395 258.054C292.379 258.103 292.373 258.155 292.377 258.206C292.381 258.257 292.395 258.308 292.418 258.353C292.441 258.399 292.473 258.44 292.513 258.473L297.071 262.386V264.828C297.071 264.879 297.081 264.93 297.1 264.978C297.12 265.025 297.149 265.069 297.185 265.105C297.222 265.141 297.265 265.17 297.312 265.19C297.36 265.21 297.411 265.22 297.462 265.22C297.514 265.22 297.565 265.21 297.612 265.19C297.66 265.17 297.703 265.141 297.739 265.105C297.776 265.069 297.804 265.025 297.824 264.978C297.844 264.93 297.854 264.879 297.853 264.828V257.199C297.853 257.095 297.812 256.995 297.739 256.922C297.665 256.849 297.566 256.807 297.462 256.807Z" fill="#3F3D56"/>
<path d="M63.8002 265.563H34.1598V265.219C34.1589 263.272 34.5415 261.344 35.2859 259.545C36.0302 257.746 37.1217 256.112 38.498 254.735C39.8743 253.358 41.5084 252.266 43.3069 251.52C45.1054 250.775 47.0332 250.391 48.98 250.391C50.9268 250.391 52.8546 250.775 54.6531 251.52C56.4516 252.266 58.0857 253.358 59.462 254.735C60.8383 256.112 61.9298 257.746 62.6741 259.545C63.4185 261.344 63.8011 263.272 63.8002 265.219L63.8002 265.563ZM34.8532 264.874H63.1068C63.0169 261.187 61.489 257.681 58.8495 255.106C56.2101 252.53 52.6681 251.088 48.98 251.088C45.2919 251.088 41.7499 252.53 39.1105 255.106C36.471 257.681 34.9431 261.187 34.8532 264.874H34.8532Z" fill="#3F3D56"/>
<path d="M48.98 256.807C48.8763 256.807 48.7768 256.849 48.7034 256.922C48.63 256.995 48.5888 257.095 48.5888 257.199V261.355L44.5402 257.88C44.5012 257.846 44.456 257.821 44.4071 257.804C44.3582 257.788 44.3067 257.782 44.2553 257.786C44.204 257.79 44.154 257.804 44.108 257.827C44.0621 257.85 44.0212 257.882 43.9877 257.921C43.9542 257.96 43.9287 258.005 43.9127 258.054C43.8967 258.103 43.8905 258.155 43.8945 258.206C43.8984 258.257 43.9125 258.308 43.9358 258.353C43.9592 258.399 43.9913 258.44 44.0304 258.473L48.5888 262.386V264.828C48.5886 264.879 48.5986 264.93 48.6182 264.978C48.6378 265.025 48.6666 265.069 48.703 265.105C48.7393 265.141 48.7825 265.17 48.83 265.19C48.8776 265.21 48.9285 265.22 48.98 265.22C49.0315 265.22 49.0825 265.21 49.13 265.19C49.1776 265.17 49.2207 265.141 49.2571 265.105C49.2934 265.069 49.3222 265.025 49.3418 264.978C49.3614 264.93 49.3714 264.879 49.3713 264.828V257.199C49.3713 257.095 49.33 256.995 49.2567 256.922C49.1833 256.849 49.0838 256.807 48.98 256.807Z" fill="#3F3D56"/>
<path d="M70.196 223.613C70.0586 223.613 69.9249 223.613 69.7875 223.61C60.5738 223.506 51.7726 219.773 45.2928 213.222C38.8131 206.671 35.1773 197.83 35.1741 188.616C35.1741 178.443 39.3635 162.162 45.362 149.024C49.6759 139.575 58.6385 123.724 70.196 123.724C74.9565 123.724 79.7501 126.437 84.4438 131.789C84.6765 132.053 84.9098 132.325 85.1397 132.603L85.2186 132.699V220.231L85.0242 220.325C84.7923 220.438 84.5569 220.543 84.3216 220.645C79.9965 222.559 75.3255 223.568 70.596 223.61C70.4673 223.613 70.3298 223.613 70.196 223.613ZM70.196 124.413C59.0239 124.413 50.2342 140.012 45.989 149.31C40.0272 162.368 35.8633 178.531 35.8633 188.616C35.8633 207.321 51.0873 222.71 69.8 222.921C69.9394 222.924 70.0695 222.925 70.2051 222.924C70.3302 222.924 70.4584 222.924 70.5834 222.921C75.2221 222.88 79.8033 221.891 84.0453 220.014C84.208 219.943 84.3694 219.872 84.5293 219.797V132.947C84.3298 132.707 84.128 132.473 83.9262 132.244C79.3685 127.048 74.7492 124.413 70.196 124.413Z" fill="#3F3D56"/>
<path d="M70.1946 199.182C70.1377 199.182 70.0815 199.17 70.0297 199.147C69.978 199.123 69.932 199.089 69.8947 199.046L49.9529 176.048C49.8842 175.969 49.8499 175.865 49.8575 175.76C49.865 175.655 49.9138 175.558 49.9932 175.489C50.0726 175.42 50.176 175.386 50.2807 175.393C50.3855 175.401 50.4831 175.449 50.5521 175.528L70.494 198.526C70.5437 198.583 70.576 198.654 70.5868 198.729C70.5976 198.804 70.5866 198.881 70.5551 198.95C70.5235 199.019 70.4728 199.078 70.4089 199.119C70.3449 199.16 70.2706 199.182 70.1946 199.182V199.182Z" fill="#CCCCCC"/>
<path d="M70.1943 212.455C70.1159 212.455 70.0392 212.431 69.974 212.388C69.9088 212.344 69.858 212.282 69.828 212.21C69.798 212.137 69.7902 212.058 69.8055 211.981C69.8208 211.904 69.8585 211.833 69.914 211.778L81.2453 200.446C81.3197 200.372 81.4205 200.331 81.5254 200.331C81.6304 200.331 81.731 200.373 81.8052 200.447C81.8794 200.521 81.9212 200.622 81.9213 200.727C81.9215 200.832 81.88 200.932 81.806 201.007L70.4747 212.338C70.4379 212.375 70.3942 212.405 70.3461 212.425C70.298 212.444 70.2464 212.455 70.1943 212.455Z" fill="#CCCCCC"/>
<path d="M101.334 59.9666L101.589 60.4697C101.702 60.6868 101.761 60.928 101.761 61.1728V74.7859H113.823V61.1728C113.823 60.928 113.883 60.6868 113.996 60.4697L114.251 59.9666H101.334ZM113.134 61.1728V74.0966H102.45V61.1728C102.451 60.9986 102.43 60.825 102.388 60.6558H113.196C113.155 60.825 113.134 60.9986 113.134 61.1728ZM116.498 59.9666L116.753 60.4697C116.866 60.6868 116.925 60.928 116.925 61.1728V74.7859H128.987V61.1728C128.987 60.928 129.047 60.6868 129.16 60.4697L129.415 59.9666H116.498ZM128.298 61.1728V74.0966H117.614V61.1728C117.614 60.9986 117.594 60.825 117.552 60.6558H128.36C128.319 60.825 128.298 60.9986 128.298 61.1728ZM131.662 59.9666L131.917 60.4697C132.03 60.6868 132.089 60.928 132.089 61.1728V74.7859H144.151V61.1728C144.151 60.928 144.21 60.6868 144.324 60.4697L144.579 59.9666H131.662ZM143.462 61.1728V74.0966H132.778V61.1728C132.778 60.9986 132.758 60.825 132.716 60.6558H143.524C143.483 60.825 143.462 60.9986 143.462 61.1728ZM146.826 59.9666L147.081 60.4697C147.194 60.6868 147.253 60.928 147.253 61.1728V74.7859H159.315V61.1728C159.315 60.928 159.374 60.6868 159.488 60.4697L159.743 59.9666H146.826ZM158.626 61.1728V74.0966H147.942V61.1728C147.942 60.9986 147.922 60.825 147.88 60.6558H158.688C158.647 60.825 158.626 60.9986 158.626 61.1728ZM161.989 59.9666L162.245 60.4697C162.358 60.6868 162.417 60.928 162.417 61.1728V74.7859H174.479V61.1728C174.479 60.928 174.538 60.6868 174.651 60.4697L174.907 59.9666H161.989ZM173.79 61.1728V74.0966H163.106V61.1728C163.106 60.9986 163.086 60.825 163.044 60.6558H173.852C173.811 60.825 173.79 60.9986 173.79 61.1728ZM177.153 59.9666L177.409 60.4697C177.522 60.6868 177.581 60.928 177.581 61.1728V74.7859H189.643V61.1728C189.643 60.928 189.702 60.6868 189.815 60.4697L190.071 59.9666H177.153ZM188.954 61.1728V74.0966H178.27V61.1728C178.27 60.9986 178.249 60.825 178.208 60.6558H189.016C188.974 60.825 188.954 60.9986 188.954 61.1728ZM192.317 59.9666L192.572 60.4697C192.686 60.6868 192.745 60.928 192.745 61.1728V74.7859H204.807V61.1728C204.807 60.928 204.866 60.6868 204.979 60.4697L205.234 59.9666H192.317ZM204.118 61.1728V74.0966H193.434V61.1728C193.434 60.9986 193.413 60.825 193.372 60.6558H204.18C204.138 60.825 204.118 60.9986 204.118 61.1728ZM207.481 59.9666L207.736 60.4697C207.85 60.6868 207.909 60.928 207.909 61.1728V74.7859H219.971V61.1728C219.971 60.928 220.03 60.6868 220.143 60.4697L220.398 59.9666H207.481ZM219.282 61.1728V74.0966H208.598V61.1728C208.598 60.9986 208.577 60.825 208.536 60.6558H219.344C219.302 60.825 219.282 60.9986 219.282 61.1728ZM222.645 59.9666L222.9 60.4697C223.013 60.6868 223.073 60.928 223.073 61.1728V74.7859H235.135V61.1728C235.135 60.928 235.194 60.6868 235.307 60.4697L235.562 59.9666H222.645ZM234.446 61.1728V74.0966H223.762V61.1728C223.762 60.9986 223.741 60.825 223.7 60.6558H234.508C234.466 60.825 234.445 60.9986 234.446 61.1728ZM222.645 59.9666L222.9 60.4697C223.013 60.6868 223.073 60.928 223.073 61.1728V74.7859H235.135V61.1728C235.135 60.928 235.194 60.6868 235.307 60.4697L235.562 59.9666H222.645ZM234.446 61.1728V74.0966H223.762V61.1728C223.762 60.9986 223.741 60.825 223.7 60.6558H234.508C234.466 60.825 234.445 60.9986 234.446 61.1728ZM207.481 59.9666L207.736 60.4697C207.85 60.6868 207.909 60.928 207.909 61.1728V74.7859H219.971V61.1728C219.971 60.928 220.03 60.6868 220.143 60.4697L220.398 59.9666H207.481ZM219.282 61.1728V74.0966H208.598V61.1728C208.598 60.9986 208.577 60.825 208.536 60.6558H219.344C219.302 60.825 219.282 60.9986 219.282 61.1728ZM192.317 59.9666L192.572 60.4697C192.686 60.6868 192.745 60.928 192.745 61.1728V74.7859H204.807V61.1728C204.807 60.928 204.866 60.6868 204.979 60.4697L205.234 59.9666H192.317ZM204.118 61.1728V74.0966H193.434V61.1728C193.434 60.9986 193.413 60.825 193.372 60.6558H204.18C204.138 60.825 204.118 60.9986 204.118 61.1728ZM177.153 59.9666L177.409 60.4697C177.522 60.6868 177.581 60.928 177.581 61.1728V74.7859H189.643V61.1728C189.643 60.928 189.702 60.6868 189.815 60.4697L190.071 59.9666H177.153ZM188.954 61.1728V74.0966H178.27V61.1728C178.27 60.9986 178.249 60.825 178.208 60.6558H189.016C188.974 60.825 188.954 60.9986 188.954 61.1728ZM161.989 59.9666L162.245 60.4697C162.358 60.6868 162.417 60.928 162.417 61.1728V74.7859H174.479V61.1728C174.479 60.928 174.538 60.6868 174.651 60.4697L174.907 59.9666H161.989ZM173.79 61.1728V74.0966H163.106V61.1728C163.106 60.9986 163.086 60.825 163.044 60.6558H173.852C173.811 60.825 173.79 60.9986 173.79 61.1728ZM146.826 59.9666L147.081 60.4697C147.194 60.6868 147.253 60.928 147.253 61.1728V74.7859H159.315V61.1728C159.315 60.928 159.374 60.6868 159.488 60.4697L159.743 59.9666H146.826ZM158.626 61.1728V74.0966H147.942V61.1728C147.942 60.9986 147.922 60.825 147.88 60.6558H158.688C158.647 60.825 158.626 60.9986 158.626 61.1728ZM131.662 59.9666L131.917 60.4697C132.03 60.6868 132.089 60.928 132.089 61.1728V74.7859H144.151V61.1728C144.151 60.928 144.21 60.6868 144.324 60.4697L144.579 59.9666H131.662ZM143.462 61.1728V74.0966H132.778V61.1728C132.778 60.9986 132.758 60.825 132.716 60.6558H143.524C143.483 60.825 143.462 60.9986 143.462 61.1728ZM116.498 59.9666L116.753 60.4697C116.866 60.6868 116.925 60.928 116.925 61.1728V74.7859H128.987V61.1728C128.987 60.928 129.047 60.6868 129.16 60.4697L129.415 59.9666H116.498ZM128.298 61.1728V74.0966H117.614V61.1728C117.614 60.9986 117.594 60.825 117.552 60.6558H128.36C128.319 60.825 128.298 60.9986 128.298 61.1728ZM101.334 59.9666L101.589 60.4697C101.702 60.6868 101.761 60.928 101.761 61.1728V74.7859H113.823V61.1728C113.823 60.928 113.883 60.6868 113.996 60.4697L114.251 59.9666H101.334ZM113.134 61.1728V74.0966H102.45V61.1728C102.451 60.9986 102.43 60.825 102.388 60.6558H113.196C113.155 60.825 113.134 60.9986 113.134 61.1728ZM222.645 59.9666L222.9 60.4697C223.013 60.6868 223.073 60.928 223.073 61.1728V74.7859H235.135V61.1728C235.135 60.928 235.194 60.6868 235.307 60.4697L235.562 59.9666H222.645ZM234.446 61.1728V74.0966H223.762V61.1728C223.762 60.9986 223.741 60.825 223.7 60.6558H234.508C234.466 60.825 234.445 60.9986 234.446 61.1728ZM207.481 59.9666L207.736 60.4697C207.85 60.6868 207.909 60.928 207.909 61.1728V74.7859H219.971V61.1728C219.971 60.928 220.03 60.6868 220.143 60.4697L220.398 59.9666H207.481ZM219.282 61.1728V74.0966H208.598V61.1728C208.598 60.9986 208.577 60.825 208.536 60.6558H219.344C219.302 60.825 219.282 60.9986 219.282 61.1728ZM192.317 59.9666L192.572 60.4697C192.686 60.6868 192.745 60.928 192.745 61.1728V74.7859H204.807V61.1728C204.807 60.928 204.866 60.6868 204.979 60.4697L205.234 59.9666H192.317ZM204.118 61.1728V74.0966H193.434V61.1728C193.434 60.9986 193.413 60.825 193.372 60.6558H204.18C204.138 60.825 204.118 60.9986 204.118 61.1728ZM177.153 59.9666L177.409 60.4697C177.522 60.6868 177.581 60.928 177.581 61.1728V74.7859H189.643V61.1728C189.643 60.928 189.702 60.6868 189.815 60.4697L190.071 59.9666H177.153ZM188.954 61.1728V74.0966H178.27V61.1728C178.27 60.9986 178.249 60.825 178.208 60.6558H189.016C188.974 60.825 188.954 60.9986 188.954 61.1728ZM161.989 59.9666L162.245 60.4697C162.358 60.6868 162.417 60.928 162.417 61.1728V74.7859H174.479V61.1728C174.479 60.928 174.538 60.6868 174.651 60.4697L174.907 59.9666H161.989ZM173.79 61.1728V74.0966H163.106V61.1728C163.106 60.9986 163.086 60.825 163.044 60.6558H173.852C173.811 60.825 173.79 60.9986 173.79 61.1728ZM146.826 59.9666L147.081 60.4697C147.194 60.6868 147.253 60.928 147.253 61.1728V74.7859H159.315V61.1728C159.315 60.928 159.374 60.6868 159.488 60.4697L159.743 59.9666H146.826ZM158.626 61.1728V74.0966H147.942V61.1728C147.942 60.9986 147.922 60.825 147.88 60.6558H158.688C158.647 60.825 158.626 60.9986 158.626 61.1728ZM131.662 59.9666L131.917 60.4697C132.03 60.6868 132.089 60.928 132.089 61.1728V74.7859H144.151V61.1728C144.151 60.928 144.21 60.6868 144.324 60.4697L144.579 59.9666H131.662ZM143.462 61.1728V74.0966H132.778V61.1728C132.778 60.9986 132.758 60.825 132.716 60.6558H143.524C143.483 60.825 143.462 60.9986 143.462 61.1728ZM116.498 59.9666L116.753 60.4697C116.866 60.6868 116.925 60.928 116.925 61.1728V74.7859H128.987V61.1728C128.987 60.928 129.047 60.6868 129.16 60.4697L129.415 59.9666H116.498ZM128.298 61.1728V74.0966H117.614V61.1728C117.614 60.9986 117.594 60.825 117.552 60.6558H128.36C128.319 60.825 128.298 60.9986 128.298 61.1728ZM101.334 59.9666L101.589 60.4697C101.702 60.6868 101.761 60.928 101.761 61.1728V74.7859H113.823V61.1728C113.823 60.928 113.883 60.6868 113.996 60.4697L114.251 59.9666H101.334ZM113.134 61.1728V74.0966H102.45V61.1728C102.451 60.9986 102.43 60.825 102.388 60.6558H113.196C113.155 60.825 113.134 60.9986 113.134 61.1728ZM222.645 59.9666L222.9 60.4697C223.013 60.6868 223.073 60.928 223.073 61.1728V74.7859H235.135V61.1728C235.135 60.928 235.194 60.6868 235.307 60.4697L235.562 59.9666H222.645ZM234.446 61.1728V74.0966H223.762V61.1728C223.762 60.9986 223.741 60.825 223.7 60.6558H234.508C234.466 60.825 234.445 60.9986 234.446 61.1728ZM207.481 59.9666L207.736 60.4697C207.85 60.6868 207.909 60.928 207.909 61.1728V74.7859H219.971V61.1728C219.971 60.928 220.03 60.6868 220.143 60.4697L220.398 59.9666H207.481ZM219.282 61.1728V74.0966H208.598V61.1728C208.598 60.9986 208.577 60.825 208.536 60.6558H219.344C219.302 60.825 219.282 60.9986 219.282 61.1728ZM192.317 59.9666L192.572 60.4697C192.686 60.6868 192.745 60.928 192.745 61.1728V74.7859H204.807V61.1728C204.807 60.928 204.866 60.6868 204.979 60.4697L205.234 59.9666H192.317ZM204.118 61.1728V74.0966H193.434V61.1728C193.434 60.9986 193.413 60.825 193.372 60.6558H204.18C204.138 60.825 204.118 60.9986 204.118 61.1728ZM177.153 59.9666L177.409 60.4697C177.522 60.6868 177.581 60.928 177.581 61.1728V74.7859H189.643V61.1728C189.643 60.928 189.702 60.6868 189.815 60.4697L190.071 59.9666H177.153ZM188.954 61.1728V74.0966H178.27V61.1728C178.27 60.9986 178.249 60.825 178.208 60.6558H189.016C188.974 60.825 188.954 60.9986 188.954 61.1728ZM161.989 59.9666L162.245 60.4697C162.358 60.6868 162.417 60.928 162.417 61.1728V74.7859H174.479V61.1728C174.479 60.928 174.538 60.6868 174.651 60.4697L174.907 59.9666H161.989ZM173.79 61.1728V74.0966H163.106V61.1728C163.106 60.9986 163.086 60.825 163.044 60.6558H173.852C173.811 60.825 173.79 60.9986 173.79 61.1728ZM146.826 59.9666L147.081 60.4697C147.194 60.6868 147.253 60.928 147.253 61.1728V74.7859H159.315V61.1728C159.315 60.928 159.374 60.6868 159.488 60.4697L159.743 59.9666H146.826ZM158.626 61.1728V74.0966H147.942V61.1728C147.942 60.9986 147.922 60.825 147.88 60.6558H158.688C158.647 60.825 158.626 60.9986 158.626 61.1728ZM131.662 59.9666L131.917 60.4697C132.03 60.6868 132.089 60.928 132.089 61.1728V74.7859H144.151V61.1728C144.151 60.928 144.21 60.6868 144.324 60.4697L144.579 59.9666H131.662ZM143.462 61.1728V74.0966H132.778V61.1728C132.778 60.9986 132.758 60.825 132.716 60.6558H143.524C143.483 60.825 143.462 60.9986 143.462 61.1728ZM116.498 59.9666L116.753 60.4697C116.866 60.6868 116.925 60.928 116.925 61.1728V74.7859H128.987V61.1728C128.987 60.928 129.047 60.6868 129.16 60.4697L129.415 59.9666H116.498ZM128.298 61.1728V74.0966H117.614V61.1728C117.614 60.9986 117.594 60.825 117.552 60.6558H128.36C128.319 60.825 128.298 60.9986 128.298 61.1728ZM101.334 59.9666L101.589 60.4697C101.702 60.6868 101.761 60.928 101.761 61.1728V74.7859H113.823V61.1728C113.823 60.928 113.883 60.6868 113.996 60.4697L114.251 59.9666H101.334ZM113.134 61.1728V74.0966H102.45V61.1728C102.451 60.9986 102.43 60.825 102.388 60.6558H113.196C113.155 60.825 113.134 60.9986 113.134 61.1728ZM222.645 59.9666L222.9 60.4697C223.013 60.6868 223.073 60.928 223.073 61.1728V74.7859H235.135V61.1728C235.135 60.928 235.194 60.6868 235.307 60.4697L235.562 59.9666H222.645ZM234.446 61.1728V74.0966H223.762V61.1728C223.762 60.9986 223.741 60.825 223.7 60.6558H234.508C234.466 60.825 234.445 60.9986 234.446 61.1728ZM207.481 59.9666L207.736 60.4697C207.85 60.6868 207.909 60.928 207.909 61.1728V74.7859H219.971V61.1728C219.971 60.928 220.03 60.6868 220.143 60.4697L220.398 59.9666H207.481ZM219.282 61.1728V74.0966H208.598V61.1728C208.598 60.9986 208.577 60.825 208.536 60.6558H219.344C219.302 60.825 219.282 60.9986 219.282 61.1728ZM192.317 59.9666L192.572 60.4697C192.686 60.6868 192.745 60.928 192.745 61.1728V74.7859H204.807V61.1728C204.807 60.928 204.866 60.6868 204.979 60.4697L205.234 59.9666H192.317ZM204.118 61.1728V74.0966H193.434V61.1728C193.434 60.9986 193.413 60.825 193.372 60.6558H204.18C204.138 60.825 204.118 60.9986 204.118 61.1728ZM177.153 59.9666L177.409 60.4697C177.522 60.6868 177.581 60.928 177.581 61.1728V74.7859H189.643V61.1728C189.643 60.928 189.702 60.6868 189.815 60.4697L190.071 59.9666H177.153ZM188.954 61.1728V74.0966H178.27V61.1728C178.27 60.9986 178.249 60.825 178.208 60.6558H189.016C188.974 60.825 188.954 60.9986 188.954 61.1728ZM161.989 59.9666L162.245 60.4697C162.358 60.6868 162.417 60.928 162.417 61.1728V74.7859H174.479V61.1728C174.479 60.928 174.538 60.6868 174.651 60.4697L174.907 59.9666H161.989ZM173.79 61.1728V74.0966H163.106V61.1728C163.106 60.9986 163.086 60.825 163.044 60.6558H173.852C173.811 60.825 173.79 60.9986 173.79 61.1728ZM146.826 59.9666L147.081 60.4697C147.194 60.6868 147.253 60.928 147.253 61.1728V74.7859H159.315V61.1728C159.315 60.928 159.374 60.6868 159.488 60.4697L159.743 59.9666H146.826ZM158.626 61.1728V74.0966H147.942V61.1728C147.942 60.9986 147.922 60.825 147.88 60.6558H158.688C158.647 60.825 158.626 60.9986 158.626 61.1728ZM131.662 59.9666L131.917 60.4697C132.03 60.6868 132.089 60.928 132.089 61.1728V74.7859H144.151V61.1728C144.151 60.928 144.21 60.6868 144.324 60.4697L144.579 59.9666H131.662ZM143.462 61.1728V74.0966H132.778V61.1728C132.778 60.9986 132.758 60.825 132.716 60.6558H143.524C143.483 60.825 143.462 60.9986 143.462 61.1728ZM116.498 59.9666L116.753 60.4697C116.866 60.6868 116.925 60.928 116.925 61.1728V74.7859H128.987V61.1728C128.987 60.928 129.047 60.6868 129.16 60.4697L129.415 59.9666H116.498ZM128.298 61.1728V74.0966H117.614V61.1728C117.614 60.9986 117.594 60.825 117.552 60.6558H128.36C128.319 60.825 128.298 60.9986 128.298 61.1728ZM101.334 59.9666L101.589 60.4697C101.702 60.6868 101.761 60.928 101.761 61.1728V74.7859H113.823V61.1728C113.823 60.928 113.883 60.6868 113.996 60.4697L114.251 59.9666H101.334ZM113.134 61.1728V74.0966H102.45V61.1728C102.451 60.9986 102.43 60.825 102.388 60.6558H113.196C113.155 60.825 113.134 60.9986 113.134 61.1728ZM222.645 59.9666L222.9 60.4697C223.013 60.6868 223.073 60.928 223.073 61.1728V74.7859H235.135V61.1728C235.135 60.928 235.194 60.6868 235.307 60.4697L235.562 59.9666H222.645ZM234.446 61.1728V74.0966H223.762V61.1728C223.762 60.9986 223.741 60.825 223.7 60.6558H234.508C234.466 60.825 234.445 60.9986 234.446 61.1728ZM207.736 60.4697C207.85 60.6868 207.909 60.928 207.909 61.1728V74.7859H219.971V61.1728C219.971 60.928 220.03 60.6868 220.143 60.4697L220.398 59.9666H207.481L207.736 60.4697ZM219.344 60.6558C219.302 60.825 219.282 60.9986 219.282 61.1728V74.0966H208.598V61.1728C208.598 60.9986 208.577 60.825 208.536 60.6558H219.344ZM192.572 60.4697C192.686 60.6868 192.745 60.928 192.745 61.1728V74.7859H204.807V61.1728C204.807 60.928 204.866 60.6868 204.979 60.4697L205.234 59.9666H192.317L192.572 60.4697ZM204.18 60.6558C204.138 60.825 204.118 60.9986 204.118 61.1728V74.0966H193.434V61.1728C193.434 60.9986 193.413 60.825 193.372 60.6558H204.18ZM177.409 60.4697C177.522 60.6868 177.581 60.928 177.581 61.1728V74.7859H189.643V61.1728C189.643 60.928 189.702 60.6868 189.815 60.4697L190.071 59.9666H177.153L177.409 60.4697ZM189.016 60.6558C188.974 60.825 188.954 60.9986 188.954 61.1728V74.0966H178.27V61.1728C178.27 60.9986 178.249 60.825 178.208 60.6558H189.016ZM162.245 60.4697C162.358 60.6868 162.417 60.928 162.417 61.1728V74.7859H174.479V61.1728C174.479 60.928 174.538 60.6868 174.651 60.4697L174.907 59.9666H161.989L162.245 60.4697ZM173.852 60.6558C173.811 60.825 173.79 60.9986 173.79 61.1728V74.0966H163.106V61.1728C163.106 60.9986 163.086 60.825 163.044 60.6558H173.852ZM147.081 60.4697C147.194 60.6868 147.253 60.928 147.253 61.1728V74.7859H159.315V61.1728C159.315 60.928 159.374 60.6868 159.488 60.4697L159.743 59.9666H146.826L147.081 60.4697ZM158.688 60.6558C158.647 60.825 158.626 60.9986 158.626 61.1728V74.0966H147.942V61.1728C147.942 60.9986 147.922 60.825 147.88 60.6558H158.688ZM131.917 60.4697C132.03 60.6868 132.089 60.928 132.089 61.1728V74.7859H144.151V61.1728C144.151 60.928 144.21 60.6868 144.324 60.4697L144.579 59.9666H131.662L131.917 60.4697ZM143.524 60.6558C143.483 60.825 143.462 60.9986 143.462 61.1728V74.0966H132.778V61.1728C132.778 60.9986 132.758 60.825 132.716 60.6558H143.524ZM116.753 60.4697C116.866 60.6868 116.925 60.928 116.925 61.1728V74.7859H128.987V61.1728C128.987 60.928 129.047 60.6868 129.16 60.4697L129.415 59.9666H116.498L116.753 60.4697ZM128.36 60.6558C128.319 60.825 128.298 60.9986 128.298 61.1728V74.0966H117.614V61.1728C117.614 60.9986 117.594 60.825 117.552 60.6558H128.36ZM101.589 60.4697C101.702 60.6868 101.761 60.928 101.761 61.1728V74.7859H113.823V61.1728C113.823 60.928 113.883 60.6868 113.996 60.4697L114.251 59.9666H101.334L101.589 60.4697ZM113.196 60.6558C113.155 60.825 113.134 60.9986 113.134 61.1728V74.0966H102.45V61.1728C102.451 60.9986 102.43 60.825 102.388 60.6558H113.196ZM222.9 60.4697C223.013 60.6868 223.073 60.928 223.073 61.1728V74.7859H235.135V61.1728C235.135 60.928 235.194 60.6868 235.307 60.4697L235.562 59.9666H222.645L222.9 60.4697ZM234.508 60.6558C234.466 60.825 234.445 60.9986 234.446 61.1728V74.0966H223.762V61.1728C223.762 60.9986 223.741 60.825 223.7 60.6558H234.508ZM207.736 60.4697C207.85 60.6868 207.909 60.928 207.909 61.1728V74.7859H219.971V61.1728C219.971 60.928 220.03 60.6868 220.143 60.4697L220.398 59.9666H207.481L207.736 60.4697ZM219.344 60.6558C219.302 60.825 219.282 60.9986 219.282 61.1728V74.0966H208.598V61.1728C208.598 60.9986 208.577 60.825 208.536 60.6558H219.344ZM192.572 60.4697C192.686 60.6868 192.745 60.928 192.745 61.1728V74.7859H204.807V61.1728C204.807 60.928 204.866 60.6868 204.979 60.4697L205.234 59.9666H192.317L192.572 60.4697ZM204.18 60.6558C204.138 60.825 204.118 60.9986 204.118 61.1728V74.0966H193.434V61.1728C193.434 60.9986 193.413 60.825 193.372 60.6558H204.18ZM177.409 60.4697C177.522 60.6868 177.581 60.928 177.581 61.1728V74.7859H189.643V61.1728C189.643 60.928 189.702 60.6868 189.815 60.4697L190.071 59.9666H177.153L177.409 60.4697ZM189.016 60.6558C188.974 60.825 188.954 60.9986 188.954 61.1728V74.0966H178.27V61.1728C178.27 60.9986 178.249 60.825 178.208 60.6558H189.016ZM162.245 60.4697C162.358 60.6868 162.417 60.928 162.417 61.1728V74.7859H174.479V61.1728C174.479 60.928 174.538 60.6868 174.651 60.4697L174.907 59.9666H161.989L162.245 60.4697ZM173.852 60.6558C173.811 60.825 173.79 60.9986 173.79 61.1728V74.0966H163.106V61.1728C163.106 60.9986 163.086 60.825 163.044 60.6558H173.852ZM147.081 60.4697C147.194 60.6868 147.253 60.928 147.253 61.1728V74.7859H159.315V61.1728C159.315 60.928 159.374 60.6868 159.488 60.4697L159.743 59.9666H146.826L147.081 60.4697ZM158.688 60.6558C158.647 60.825 158.626 60.9986 158.626 61.1728V74.0966H147.942V61.1728C147.942 60.9986 147.922 60.825 147.88 60.6558H158.688ZM131.917 60.4697C132.03 60.6868 132.089 60.928 132.089 61.1728V74.7859H144.151V61.1728C144.151 60.928 144.21 60.6868 144.324 60.4697L144.579 59.9666H131.662L131.917 60.4697ZM143.524 60.6558C143.483 60.825 143.462 60.9986 143.462 61.1728V74.0966H132.778V61.1728C132.778 60.9986 132.758 60.825 132.716 60.6558H143.524ZM116.753 60.4697C116.866 60.6868 116.925 60.928 116.925 61.1728V74.7859H128.987V61.1728C128.987 60.928 129.047 60.6868 129.16 60.4697L129.415 59.9666H116.498L116.753 60.4697ZM128.36 60.6558C128.319 60.825 128.298 60.9986 128.298 61.1728V74.0966H117.614V61.1728C117.614 60.9986 117.594 60.825 117.552 60.6558H128.36ZM101.589 60.4697C101.702 60.6868 101.761 60.928 101.761 61.1728V74.7859H113.823V61.1728C113.823 60.928 113.883 60.6868 113.996 60.4697L114.251 59.9666H101.334L101.589 60.4697ZM113.196 60.6558C113.155 60.825 113.134 60.9986 113.134 61.1728V74.0966H102.45V61.1728C102.451 60.9986 102.43 60.825 102.388 60.6558H113.196ZM248.92 76.8537H244.812C244.586 76.0609 244.108 75.3632 243.45 74.8659C242.792 74.3686 241.991 74.0986 241.166 74.0966H238.926V61.1728C238.927 60.8953 238.874 60.6203 238.771 60.3629C239.161 60.1329 239.465 59.7809 239.636 59.361C239.806 58.9411 239.834 58.4768 239.714 58.0397C239.595 57.6026 239.335 57.217 238.974 56.9423C238.614 56.6677 238.173 56.5194 237.72 56.5202H99.1763C98.7231 56.5194 98.2823 56.6677 97.9218 56.9423C97.5613 57.217 97.3012 57.6026 97.1816 58.0397C97.0621 58.4768 97.0897 58.9411 97.2602 59.361C97.4308 59.7809 97.7347 60.1329 98.1252 60.3629C98.0219 60.6203 97.9692 60.8953 97.9701 61.1728V74.0966H95.7299C94.9054 74.0986 94.1038 74.3686 93.4461 74.8659C92.7884 75.3632 92.3102 76.0609 92.0837 76.8537H87.631C86.8088 76.8549 86.0206 77.1821 85.4391 77.7635C84.8577 78.345 84.5305 79.1332 84.5293 79.9554V261.923C84.5311 262.745 84.8584 263.533 85.4397 264.114C86.021 264.695 86.8089 265.023 87.631 265.025H248.92C249.743 265.023 250.531 264.696 251.112 264.115C251.694 263.533 252.021 262.745 252.022 261.923V79.9554C252.021 79.1332 251.694 78.345 251.112 77.7635C250.531 77.1821 249.743 76.8549 248.92 76.8537ZM251.333 261.923C251.332 262.415 251.181 262.896 250.9 263.3C250.618 263.704 250.22 264.013 249.758 264.184C249.49 264.286 249.207 264.337 248.92 264.335H87.631C87.3449 264.337 87.0609 264.286 86.7935 264.184C86.3317 264.013 85.9333 263.704 85.6518 263.3C85.3703 262.896 85.2191 262.415 85.2186 261.923V79.9554C85.2193 79.3158 85.4737 78.7026 85.9259 78.2503C86.3782 77.7981 86.9914 77.5437 87.631 77.543H92.6351L92.6903 77.2673C92.8352 76.5676 93.2164 75.9391 93.7699 75.4873C94.3234 75.0355 95.0155 74.7878 95.7299 74.7859H98.6593V61.1728C98.6595 60.8923 98.7357 60.6172 98.88 60.3767L99.0935 60.0217L98.7041 59.877C98.3998 59.7666 98.1441 59.5525 97.9822 59.2722C97.8202 58.9919 97.7624 58.6635 97.8188 58.3447C97.8752 58.026 98.0423 57.7373 98.2906 57.5297C98.5389 57.322 98.8526 57.2086 99.1763 57.2095H237.72C238.043 57.2086 238.357 57.322 238.605 57.5297C238.854 57.7373 239.021 58.026 239.077 58.3447C239.134 58.6635 239.076 58.9919 238.914 59.2722C238.752 59.5525 238.496 59.7666 238.192 59.877L237.803 60.0217L238.016 60.3767C238.16 60.6171 238.237 60.8923 238.237 61.1728V74.7859H241.166C241.881 74.7878 242.573 75.0354 243.126 75.4873C243.68 75.9391 244.061 76.5676 244.206 77.2673L244.261 77.543H248.92C249.56 77.5437 250.173 77.7981 250.625 78.2503C251.078 78.7026 251.332 79.3158 251.333 79.9554L251.333 261.923ZM101.334 59.9666L101.589 60.4697C101.702 60.6868 101.761 60.928 101.761 61.1728V74.7859H113.823V61.1728C113.823 60.928 113.883 60.6868 113.996 60.4697L114.251 59.9666H101.334ZM113.134 61.1728V74.0966H102.45V61.1728C102.451 60.9986 102.43 60.825 102.388 60.6558H113.196C113.155 60.825 113.134 60.9986 113.134 61.1728ZM116.498 59.9666L116.753 60.4697C116.866 60.6868 116.925 60.928 116.925 61.1728V74.7859H128.987V61.1728C128.987 60.928 129.047 60.6868 129.16 60.4697L129.415 59.9666H116.498ZM128.298 61.1728V74.0966H117.614V61.1728C117.614 60.9986 117.594 60.825 117.552 60.6558H128.36C128.319 60.825 128.298 60.9986 128.298 61.1728ZM131.662 59.9666L131.917 60.4697C132.03 60.6868 132.089 60.928 132.089 61.1728V74.7859H144.151V61.1728C144.151 60.928 144.21 60.6868 144.324 60.4697L144.579 59.9666H131.662ZM143.462 61.1728V74.0966H132.778V61.1728C132.778 60.9986 132.758 60.825 132.716 60.6558H143.524C143.483 60.825 143.462 60.9986 143.462 61.1728ZM146.826 59.9666L147.081 60.4697C147.194 60.6868 147.253 60.928 147.253 61.1728V74.7859H159.315V61.1728C159.315 60.928 159.374 60.6868 159.488 60.4697L159.743 59.9666H146.826ZM158.626 61.1728V74.0966H147.942V61.1728C147.942 60.9986 147.922 60.825 147.88 60.6558H158.688C158.647 60.825 158.626 60.9986 158.626 61.1728ZM161.989 59.9666L162.245 60.4697C162.358 60.6868 162.417 60.928 162.417 61.1728V74.7859H174.479V61.1728C174.479 60.928 174.538 60.6868 174.651 60.4697L174.907 59.9666H161.989ZM173.79 61.1728V74.0966H163.106V61.1728C163.106 60.9986 163.086 60.825 163.044 60.6558H173.852C173.811 60.825 173.79 60.9986 173.79 61.1728ZM177.153 59.9666L177.409 60.4697C177.522 60.6868 177.581 60.928 177.581 61.1728V74.7859H189.643V61.1728C189.643 60.928 189.702 60.6868 189.815 60.4697L190.071 59.9666H177.153ZM188.954 61.1728V74.0966H178.27V61.1728C178.27 60.9986 178.249 60.825 178.208 60.6558H189.016C188.974 60.825 188.954 60.9986 188.954 61.1728ZM192.317 59.9666L192.572 60.4697C192.686 60.6868 192.745 60.928 192.745 61.1728V74.7859H204.807V61.1728C204.807 60.928 204.866 60.6868 204.979 60.4697L205.234 59.9666H192.317ZM204.118 61.1728V74.0966H193.434V61.1728C193.434 60.9986 193.413 60.825 193.372 60.6558H204.18C204.138 60.825 204.118 60.9986 204.118 61.1728ZM207.481 59.9666L207.736 60.4697C207.85 60.6868 207.909 60.928 207.909 61.1728V74.7859H219.971V61.1728C219.971 60.928 220.03 60.6868 220.143 60.4697L220.398 59.9666H207.481ZM219.282 61.1728V74.0966H208.598V61.1728C208.598 60.9986 208.577 60.825 208.536 60.6558H219.344C219.302 60.825 219.282 60.9986 219.282 61.1728ZM222.645 59.9666L222.9 60.4697C223.013 60.6868 223.073 60.928 223.073 61.1728V74.7859H235.135V61.1728C235.135 60.928 235.194 60.6868 235.307 60.4697L235.562 59.9666H222.645ZM234.446 61.1728V74.0966H223.762V61.1728C223.762 60.9986 223.741 60.825 223.7 60.6558H234.508C234.466 60.825 234.445 60.9986 234.446 61.1728ZM101.334 59.9666L101.589 60.4697C101.702 60.6868 101.761 60.928 101.761 61.1728V74.7859H113.823V61.1728C113.823 60.928 113.883 60.6868 113.996 60.4697L114.251 59.9666H101.334ZM113.134 61.1728V74.0966H102.45V61.1728C102.451 60.9986 102.43 60.825 102.388 60.6558H113.196C113.155 60.825 113.134 60.9986 113.134 61.1728ZM116.498 59.9666L116.753 60.4697C116.866 60.6868 116.925 60.928 116.925 61.1728V74.7859H128.987V61.1728C128.987 60.928 129.047 60.6868 129.16 60.4697L129.415 59.9666H116.498ZM128.298 61.1728V74.0966H117.614V61.1728C117.614 60.9986 117.594 60.825 117.552 60.6558H128.36C128.319 60.825 128.298 60.9986 128.298 61.1728ZM131.662 59.9666L131.917 60.4697C132.03 60.6868 132.089 60.928 132.089 61.1728V74.7859H144.151V61.1728C144.151 60.928 144.21 60.6868 144.324 60.4697L144.579 59.9666H131.662ZM143.462 61.1728V74.0966H132.778V61.1728C132.778 60.9986 132.758 60.825 132.716 60.6558H143.524C143.483 60.825 143.462 60.9986 143.462 61.1728ZM146.826 59.9666L147.081 60.4697C147.194 60.6868 147.253 60.928 147.253 61.1728V74.7859H159.315V61.1728C159.315 60.928 159.374 60.6868 159.488 60.4697L159.743 59.9666H146.826ZM158.626 61.1728V74.0966H147.942V61.1728C147.942 60.9986 147.922 60.825 147.88 60.6558H158.688C158.647 60.825 158.626 60.9986 158.626 61.1728ZM161.989 59.9666L162.245 60.4697C162.358 60.6868 162.417 60.928 162.417 61.1728V74.7859H174.479V61.1728C174.479 60.928 174.538 60.6868 174.651 60.4697L174.907 59.9666H161.989ZM173.79 61.1728V74.0966H163.106V61.1728C163.106 60.9986 163.086 60.825 163.044 60.6558H173.852C173.811 60.825 173.79 60.9986 173.79 61.1728ZM177.153 59.9666L177.409 60.4697C177.522 60.6868 177.581 60.928 177.581 61.1728V74.7859H189.643V61.1728C189.643 60.928 189.702 60.6868 189.815 60.4697L190.071 59.9666H177.153ZM188.954 61.1728V74.0966H178.27V61.1728C178.27 60.9986 178.249 60.825 178.208 60.6558H189.016C188.974 60.825 188.954 60.9986 188.954 61.1728ZM192.317 59.9666L192.572 60.4697C192.686 60.6868 192.745 60.928 192.745 61.1728V74.7859H204.807V61.1728C204.807 60.928 204.866 60.6868 204.979 60.4697L205.234 59.9666H192.317ZM204.118 61.1728V74.0966H193.434V61.1728C193.434 60.9986 193.413 60.825 193.372 60.6558H204.18C204.138 60.825 204.118 60.9986 204.118 61.1728ZM207.481 59.9666L207.736 60.4697C207.85 60.6868 207.909 60.928 207.909 61.1728V74.7859H219.971V61.1728C219.971 60.928 220.03 60.6868 220.143 60.4697L220.398 59.9666H207.481ZM219.282 61.1728V74.0966H208.598V61.1728C208.598 60.9986 208.577 60.825 208.536 60.6558H219.344C219.302 60.825 219.282 60.9986 219.282 61.1728ZM222.645 59.9666L222.9 60.4697C223.013 60.6868 223.073 60.928 223.073 61.1728V74.7859H235.135V61.1728C235.135 60.928 235.194 60.6868 235.307 60.4697L235.562 59.9666H222.645ZM234.446 61.1728V74.0966H223.762V61.1728C223.762 60.9986 223.741 60.825 223.7 60.6558H234.508C234.466 60.825 234.445 60.9986 234.446 61.1728ZM101.334 59.9666L101.589 60.4697C101.702 60.6868 101.761 60.928 101.761 61.1728V74.7859H113.823V61.1728C113.823 60.928 113.883 60.6868 113.996 60.4697L114.251 59.9666H101.334ZM113.134 61.1728V74.0966H102.45V61.1728C102.451 60.9986 102.43 60.825 102.388 60.6558H113.196C113.155 60.825 113.134 60.9986 113.134 61.1728ZM116.498 59.9666L116.753 60.4697C116.866 60.6868 116.925 60.928 116.925 61.1728V74.7859H128.987V61.1728C128.987 60.928 129.047 60.6868 129.16 60.4697L129.415 59.9666H116.498ZM128.298 61.1728V74.0966H117.614V61.1728C117.614 60.9986 117.594 60.825 117.552 60.6558H128.36C128.319 60.825 128.298 60.9986 128.298 61.1728ZM131.662 59.9666L131.917 60.4697C132.03 60.6868 132.089 60.928 132.089 61.1728V74.7859H144.151V61.1728C144.151 60.928 144.21 60.6868 144.324 60.4697L144.579 59.9666H131.662ZM143.462 61.1728V74.0966H132.778V61.1728C132.778 60.9986 132.758 60.825 132.716 60.6558H143.524C143.483 60.825 143.462 60.9986 143.462 61.1728ZM146.826 59.9666L147.081 60.4697C147.194 60.6868 147.253 60.928 147.253 61.1728V74.7859H159.315V61.1728C159.315 60.928 159.374 60.6868 159.488 60.4697L159.743 59.9666H146.826ZM158.626 61.1728V74.0966H147.942V61.1728C147.942 60.9986 147.922 60.825 147.88 60.6558H158.688C158.647 60.825 158.626 60.9986 158.626 61.1728ZM161.989 59.9666L162.245 60.4697C162.358 60.6868 162.417 60.928 162.417 61.1728V74.7859H174.479V61.1728C174.479 60.928 174.538 60.6868 174.651 60.4697L174.907 59.9666H161.989ZM173.79 61.1728V74.0966H163.106V61.1728C163.106 60.9986 163.086 60.825 163.044 60.6558H173.852C173.811 60.825 173.79 60.9986 173.79 61.1728ZM177.153 59.9666L177.409 60.4697C177.522 60.6868 177.581 60.928 177.581 61.1728V74.7859H189.643V61.1728C189.643 60.928 189.702 60.6868 189.815 60.4697L190.071 59.9666H177.153ZM188.954 61.1728V74.0966H178.27V61.1728C178.27 60.9986 178.249 60.825 178.208 60.6558H189.016C188.974 60.825 188.954 60.9986 188.954 61.1728ZM192.317 59.9666L192.572 60.4697C192.686 60.6868 192.745 60.928 192.745 61.1728V74.7859H204.807V61.1728C204.807 60.928 204.866 60.6868 204.979 60.4697L205.234 59.9666H192.317ZM204.118 61.1728V74.0966H193.434V61.1728C193.434 60.9986 193.413 60.825 193.372 60.6558H204.18C204.138 60.825 204.118 60.9986 204.118 61.1728ZM207.481 59.9666L207.736 60.4697C207.85 60.6868 207.909 60.928 207.909 61.1728V74.7859H219.971V61.1728C219.971 60.928 220.03 60.6868 220.143 60.4697L220.398 59.9666H207.481ZM219.282 61.1728V74.0966H208.598V61.1728C208.598 60.9986 208.577 60.825 208.536 60.6558H219.344C219.302 60.825 219.282 60.9986 219.282 61.1728ZM222.645 59.9666L222.9 60.4697C223.013 60.6868 223.073 60.928 223.073 61.1728V74.7859H235.135V61.1728C235.135 60.928 235.194 60.6868 235.307 60.4697L235.562 59.9666H222.645ZM234.446 61.1728V74.0966H223.762V61.1728C223.762 60.9986 223.741 60.825 223.7 60.6558H234.508C234.466 60.825 234.445 60.9986 234.446 61.1728ZM101.334 59.9666L101.589 60.4697C101.702 60.6868 101.761 60.928 101.761 61.1728V74.7859H113.823V61.1728C113.823 60.928 113.883 60.6868 113.996 60.4697L114.251 59.9666H101.334ZM113.134 61.1728V74.0966H102.45V61.1728C102.451 60.9986 102.43 60.825 102.388 60.6558H113.196C113.155 60.825 113.134 60.9986 113.134 61.1728ZM116.498 59.9666L116.753 60.4697C116.866 60.6868 116.925 60.928 116.925 61.1728V74.7859H128.987V61.1728C128.987 60.928 129.047 60.6868 129.16 60.4697L129.415 59.9666H116.498ZM128.298 61.1728V74.0966H117.614V61.1728C117.614 60.9986 117.594 60.825 117.552 60.6558H128.36C128.319 60.825 128.298 60.9986 128.298 61.1728ZM131.662 59.9666L131.917 60.4697C132.03 60.6868 132.089 60.928 132.089 61.1728V74.7859H144.151V61.1728C144.151 60.928 144.21 60.6868 144.324 60.4697L144.579 59.9666H131.662ZM143.462 61.1728V74.0966H132.778V61.1728C132.778 60.9986 132.758 60.825 132.716 60.6558H143.524C143.483 60.825 143.462 60.9986 143.462 61.1728ZM146.826 59.9666L147.081 60.4697C147.194 60.6868 147.253 60.928 147.253 61.1728V74.7859H159.315V61.1728C159.315 60.928 159.374 60.6868 159.488 60.4697L159.743 59.9666H146.826ZM158.626 61.1728V74.0966H147.942V61.1728C147.942 60.9986 147.922 60.825 147.88 60.6558H158.688C158.647 60.825 158.626 60.9986 158.626 61.1728ZM161.989 59.9666L162.245 60.4697C162.358 60.6868 162.417 60.928 162.417 61.1728V74.7859H174.479V61.1728C174.479 60.928 174.538 60.6868 174.651 60.4697L174.907 59.9666H161.989ZM173.79 61.1728V74.0966H163.106V61.1728C163.106 60.9986 163.086 60.825 163.044 60.6558H173.852C173.811 60.825 173.79 60.9986 173.79 61.1728ZM177.153 59.9666L177.409 60.4697C177.522 60.6868 177.581 60.928 177.581 61.1728V74.7859H189.643V61.1728C189.643 60.928 189.702 60.6868 189.815 60.4697L190.071 59.9666H177.153ZM188.954 61.1728V74.0966H178.27V61.1728C178.27 60.9986 178.249 60.825 178.208 60.6558H189.016C188.974 60.825 188.954 60.9986 188.954 61.1728ZM192.317 59.9666L192.572 60.4697C192.686 60.6868 192.745 60.928 192.745 61.1728V74.7859H204.807V61.1728C204.807 60.928 204.866 60.6868 204.979 60.4697L205.234 59.9666H192.317ZM204.118 61.1728V74.0966H193.434V61.1728C193.434 60.9986 193.413 60.825 193.372 60.6558H204.18C204.138 60.825 204.118 60.9986 204.118 61.1728ZM207.481 59.9666L207.736 60.4697C207.85 60.6868 207.909 60.928 207.909 61.1728V74.7859H219.971V61.1728C219.971 60.928 220.03 60.6868 220.143 60.4697L220.398 59.9666H207.481ZM219.282 61.1728V74.0966H208.598V61.1728C208.598 60.9986 208.577 60.825 208.536 60.6558H219.344C219.302 60.825 219.282 60.9986 219.282 61.1728ZM222.645 59.9666L222.9 60.4697C223.013 60.6868 223.073 60.928 223.073 61.1728V74.7859H235.135V61.1728C235.135 60.928 235.194 60.6868 235.307 60.4697L235.562 59.9666H222.645ZM234.446 61.1728V74.0966H223.762V61.1728C223.762 60.9986 223.741 60.825 223.7 60.6558H234.508C234.466 60.825 234.445 60.9986 234.446 61.1728Z" fill="#3F3D56"/>
<path d="M142.308 120.278H116.894C116.358 120.277 115.845 120.064 115.467 119.686C115.088 119.307 114.875 118.794 114.875 118.259V104.72C114.875 104.185 115.088 103.672 115.467 103.293C115.845 102.915 116.358 102.702 116.894 102.701H142.308C142.843 102.702 143.357 102.915 143.735 103.293C144.114 103.672 144.326 104.185 144.327 104.72V118.259C144.326 118.794 144.114 119.307 143.735 119.686C143.357 120.064 142.843 120.277 142.308 120.278Z" fill="#27359E"/>
<path d="M180.983 120.278H155.568C155.033 120.277 154.52 120.064 154.141 119.686C153.763 119.307 153.55 118.794 153.549 118.259V104.72C153.55 104.185 153.763 103.672 154.141 103.293C154.52 102.915 155.033 102.702 155.568 102.701H180.983C181.518 102.702 182.031 102.915 182.41 103.293C182.788 103.672 183.001 104.185 183.002 104.72V118.259C183.001 118.794 182.788 119.307 182.41 119.686C182.031 120.064 181.518 120.277 180.983 120.278Z" fill="#27359E"/>
<path d="M219.658 120.278H194.243C193.708 120.277 193.195 120.064 192.816 119.686C192.438 119.307 192.225 118.794 192.224 118.259V104.72C192.225 104.185 192.438 103.672 192.816 103.293C193.195 102.915 193.708 102.702 194.243 102.701H219.658C220.193 102.702 220.706 102.915 221.085 103.293C221.463 103.672 221.676 104.185 221.677 104.72V118.259C221.676 118.794 221.463 119.307 221.085 119.686C220.706 120.064 220.193 120.277 219.658 120.278Z" fill="#27359E"/>
<path d="M142.308 165.425H116.894C116.358 165.424 115.845 165.212 115.467 164.833C115.088 164.455 114.875 163.941 114.875 163.406V149.868C114.875 149.332 115.088 148.819 115.467 148.441C115.845 148.062 116.358 147.849 116.894 147.849H142.308C142.843 147.849 143.357 148.062 143.735 148.441C144.114 148.819 144.326 149.332 144.327 149.868V163.406C144.326 163.941 144.114 164.455 143.735 164.833C143.357 165.212 142.843 165.424 142.308 165.425Z" fill="#27359E"/>
<path d="M180.983 165.425H155.568C155.033 165.424 154.52 165.212 154.141 164.833C153.763 164.455 153.55 163.941 153.549 163.406V149.868C153.55 149.332 153.763 148.819 154.141 148.441C154.52 148.062 155.033 147.849 155.568 147.849H180.983C181.518 147.849 182.031 148.062 182.41 148.441C182.788 148.819 183.001 149.332 183.002 149.868V163.406C183.001 163.941 182.788 164.455 182.41 164.833C182.031 165.212 181.518 165.424 180.983 165.425Z" fill="#27359E"/>
<path d="M219.658 165.425H194.243C193.708 165.424 193.195 165.212 192.816 164.833C192.438 164.455 192.225 163.941 192.224 163.406V149.868C192.225 149.332 192.438 148.819 192.816 148.441C193.195 148.062 193.708 147.849 194.243 147.849H219.658C220.193 147.849 220.706 148.062 221.085 148.441C221.463 148.819 221.676 149.332 221.677 149.868V163.406C221.676 163.941 221.463 164.455 221.085 164.833C220.706 165.212 220.193 165.424 219.658 165.425Z" fill="#27359E"/>
<path d="M142.308 210.572H116.894C116.358 210.572 115.845 210.359 115.467 209.98C115.088 209.602 114.875 209.089 114.875 208.553V195.015C114.875 194.479 115.088 193.966 115.467 193.588C115.845 193.209 116.358 192.996 116.894 192.996H142.308C142.843 192.996 143.357 193.209 143.735 193.588C144.114 193.966 144.326 194.479 144.327 195.015V208.553C144.326 209.089 144.114 209.602 143.735 209.98C143.357 210.359 142.843 210.572 142.308 210.572Z" fill="#27359E"/>
<path d="M180.983 210.572H155.568C155.033 210.572 154.52 210.359 154.141 209.98C153.763 209.602 153.55 209.089 153.549 208.553V195.015C153.55 194.479 153.763 193.966 154.141 193.588C154.52 193.209 155.033 192.996 155.568 192.996H180.983C181.518 192.996 182.031 193.209 182.41 193.588C182.788 193.966 183.001 194.479 183.002 195.015V208.553C183.001 209.089 182.788 209.602 182.41 209.98C182.031 210.359 181.518 210.572 180.983 210.572Z" fill="#27359E"/>
<path d="M219.658 210.572H194.243C193.708 210.572 193.195 210.359 192.816 209.98C192.438 209.602 192.225 209.089 192.224 208.553V195.015C192.225 194.479 192.438 193.966 192.816 193.588C193.195 193.209 193.708 192.996 194.243 192.996H219.658C220.193 192.996 220.706 193.209 221.085 193.588C221.463 193.966 221.676 194.479 221.677 195.015V208.553C221.676 209.089 221.463 209.602 221.085 209.98C220.706 210.359 220.193 210.572 219.658 210.572Z" fill="#27359E"/>
<path d="M138.194 122.015H108.752C108.041 122.014 107.359 121.731 106.856 121.228C106.353 120.725 106.07 120.043 106.069 119.331V103.648C106.07 102.936 106.353 102.254 106.856 101.751C107.359 101.248 108.041 100.965 108.752 100.964H138.194C138.905 100.965 139.587 101.248 140.09 101.751C140.593 102.254 140.876 102.936 140.877 103.648V119.331C140.876 120.043 140.593 120.725 140.09 121.228C139.587 121.731 138.905 122.014 138.194 122.015ZM108.752 101.654C108.224 101.654 107.717 101.864 107.343 102.238C106.969 102.612 106.759 103.119 106.758 103.648V119.331C106.759 119.86 106.969 120.367 107.343 120.741C107.717 121.115 108.224 121.325 108.752 121.326H138.194C138.722 121.325 139.229 121.115 139.603 120.741C139.977 120.367 140.187 119.86 140.188 119.331V103.648C140.187 103.119 139.977 102.612 139.603 102.238C139.229 101.864 138.722 101.654 138.194 101.654H108.752Z" fill="#3F3D56"/>
<path d="M182.996 122.015H153.555C152.844 122.014 152.162 121.731 151.659 121.228C151.155 120.725 150.873 120.043 150.872 119.331V103.648C150.873 102.936 151.155 102.254 151.659 101.751C152.162 101.248 152.844 100.965 153.555 100.964H182.996C183.708 100.965 184.39 101.248 184.893 101.751C185.396 102.254 185.679 102.936 185.68 103.648V119.331C185.679 120.043 185.396 120.725 184.893 121.228C184.39 121.731 183.708 122.014 182.996 122.015ZM153.555 101.654C153.026 101.654 152.52 101.864 152.146 102.238C151.772 102.612 151.562 103.119 151.561 103.648V119.331C151.562 119.86 151.772 120.367 152.146 120.741C152.52 121.115 153.026 121.325 153.555 121.326H182.996C183.525 121.325 184.032 121.115 184.406 120.741C184.78 120.367 184.99 119.86 184.991 119.331V103.648C184.99 103.119 184.78 102.612 184.406 102.238C184.032 101.864 183.525 101.654 182.996 101.654H153.555Z" fill="#3F3D56"/>
<path d="M227.799 122.015H198.358C197.646 122.014 196.964 121.731 196.461 121.228C195.958 120.725 195.675 120.043 195.674 119.331V103.648C195.675 102.936 195.958 102.254 196.461 101.751C196.964 101.248 197.646 100.965 198.358 100.964H227.799C228.51 100.965 229.193 101.248 229.696 101.751C230.199 102.254 230.482 102.936 230.482 103.648V119.331C230.482 120.043 230.199 120.725 229.696 121.228C229.193 121.731 228.511 122.014 227.799 122.015ZM198.358 101.654C197.829 101.654 197.322 101.864 196.948 102.238C196.574 102.612 196.364 103.119 196.364 103.648V119.331C196.364 119.86 196.574 120.367 196.948 120.741C197.322 121.115 197.829 121.325 198.358 121.326H227.799C228.328 121.325 228.835 121.115 229.209 120.741C229.582 120.367 229.793 119.86 229.793 119.331V103.648C229.793 103.119 229.582 102.612 229.209 102.238C228.835 101.864 228.328 101.654 227.799 101.654H198.358Z" fill="#3F3D56"/>
<path d="M138.194 167.162H108.752C108.041 167.161 107.359 166.878 106.856 166.375C106.353 165.872 106.07 165.19 106.069 164.479V148.795C106.07 148.084 106.353 147.401 106.856 146.898C107.359 146.395 108.041 146.112 108.752 146.111H138.194C138.905 146.112 139.587 146.395 140.09 146.898C140.593 147.401 140.876 148.084 140.877 148.795V164.479C140.876 165.19 140.593 165.872 140.09 166.375C139.587 166.878 138.905 167.161 138.194 167.162ZM108.752 146.801C108.224 146.801 107.717 147.012 107.343 147.386C106.969 147.759 106.759 148.266 106.758 148.795V164.479C106.759 165.007 106.969 165.514 107.343 165.888C107.717 166.262 108.224 166.472 108.752 166.473H138.194C138.722 166.472 139.229 166.262 139.603 165.888C139.977 165.514 140.187 165.007 140.188 164.479V148.795C140.187 148.266 139.977 147.759 139.603 147.385C139.229 147.012 138.722 146.801 138.194 146.801H108.752Z" fill="#3F3D56"/>
<path d="M182.996 167.162H153.555C152.844 167.161 152.162 166.878 151.659 166.375C151.155 165.872 150.873 165.19 150.872 164.479V148.795C150.873 148.084 151.155 147.401 151.659 146.898C152.162 146.395 152.844 146.112 153.555 146.111H182.996C183.708 146.112 184.39 146.395 184.893 146.898C185.396 147.401 185.679 148.084 185.68 148.795V164.479C185.679 165.19 185.396 165.872 184.893 166.375C184.39 166.878 183.708 167.161 182.996 167.162ZM153.555 146.801C153.026 146.801 152.52 147.012 152.146 147.385C151.772 147.759 151.562 148.266 151.561 148.795V164.479C151.562 165.007 151.772 165.514 152.146 165.888C152.52 166.262 153.026 166.472 153.555 166.473H182.996C183.525 166.472 184.032 166.262 184.406 165.888C184.78 165.514 184.99 165.007 184.991 164.479V148.795C184.99 148.266 184.78 147.759 184.406 147.385C184.032 147.012 183.525 146.801 182.996 146.801H153.555Z" fill="#3F3D56"/>
<path d="M227.799 167.162H198.358C197.646 167.161 196.964 166.878 196.461 166.375C195.958 165.872 195.675 165.19 195.674 164.479V148.795C195.675 148.084 195.958 147.401 196.461 146.898C196.964 146.395 197.646 146.112 198.358 146.111H227.799C228.51 146.112 229.193 146.395 229.696 146.898C230.199 147.401 230.482 148.084 230.482 148.795V164.479C230.482 165.19 230.199 165.872 229.696 166.375C229.193 166.878 228.511 167.161 227.799 167.162ZM198.358 146.801C197.829 146.801 197.322 147.012 196.948 147.385C196.574 147.759 196.364 148.266 196.364 148.795V164.479C196.364 165.007 196.574 165.514 196.948 165.888C197.322 166.262 197.829 166.472 198.358 166.473H227.799C228.328 166.472 228.835 166.262 229.209 165.888C229.582 165.514 229.793 165.007 229.793 164.479V148.795C229.793 148.266 229.582 147.759 229.209 147.385C228.835 147.012 228.328 146.801 227.799 146.801H198.358Z" fill="#3F3D56"/>
<path d="M138.194 212.309H108.752C108.041 212.309 107.359 212.026 106.856 211.522C106.353 211.019 106.07 210.337 106.069 209.626V193.942C106.07 193.231 106.353 192.549 106.856 192.046C107.359 191.542 108.041 191.259 108.752 191.259H138.194C138.905 191.259 139.587 191.542 140.09 192.046C140.593 192.549 140.876 193.231 140.877 193.942V209.626C140.876 210.337 140.593 211.019 140.09 211.522C139.587 212.026 138.905 212.309 138.194 212.309ZM108.752 191.948C108.224 191.949 107.717 192.159 107.343 192.533C106.969 192.907 106.759 193.413 106.758 193.942V209.626C106.759 210.155 106.969 210.661 107.343 211.035C107.717 211.409 108.224 211.619 108.752 211.62H138.194C138.722 211.62 139.229 211.409 139.603 211.035C139.977 210.661 140.187 210.155 140.188 209.626V193.942C140.187 193.413 139.977 192.907 139.603 192.533C139.229 192.159 138.722 191.949 138.194 191.948H108.752Z" fill="#3F3D56"/>
<path d="M182.996 212.309H153.555C152.844 212.309 152.162 212.026 151.659 211.522C151.155 211.019 150.873 210.337 150.872 209.626V193.942C150.873 193.231 151.155 192.549 151.659 192.046C152.162 191.542 152.844 191.259 153.555 191.259H182.996C183.708 191.259 184.39 191.542 184.893 192.046C185.396 192.549 185.679 193.231 185.68 193.942V209.626C185.679 210.337 185.396 211.019 184.893 211.522C184.39 212.026 183.708 212.309 182.996 212.309ZM153.555 191.948C153.026 191.949 152.52 192.159 152.146 192.533C151.772 192.907 151.562 193.413 151.561 193.942V209.626C151.562 210.155 151.772 210.661 152.146 211.035C152.52 211.409 153.026 211.62 153.555 211.62H182.996C183.525 211.62 184.032 211.409 184.406 211.035C184.78 210.661 184.99 210.155 184.991 209.626V193.942C184.99 193.413 184.78 192.907 184.406 192.533C184.032 192.159 183.525 191.949 182.996 191.948H153.555Z" fill="#3F3D56"/>
<path d="M227.799 212.309H198.358C197.646 212.309 196.964 212.026 196.461 211.522C195.958 211.019 195.675 210.337 195.674 209.626V193.942C195.675 193.231 195.958 192.549 196.461 192.046C196.964 191.542 197.646 191.259 198.358 191.259H227.799C228.51 191.259 229.193 191.542 229.696 192.046C230.199 192.549 230.482 193.231 230.482 193.942V209.626C230.482 210.337 230.199 211.019 229.696 211.522C229.193 212.026 228.511 212.309 227.799 212.309ZM198.358 191.948C197.829 191.949 197.322 192.159 196.948 192.533C196.574 192.907 196.364 193.413 196.364 193.942V209.626C196.364 210.155 196.574 210.661 196.948 211.035C197.322 211.409 197.829 211.62 198.358 211.62H227.799C228.328 211.62 228.835 211.409 229.209 211.035C229.582 210.661 229.793 210.155 229.793 209.626V193.942C229.793 193.413 229.582 192.907 229.209 192.533C228.835 192.159 228.328 191.949 227.799 191.948H198.358Z" fill="#3F3D56"/>
<path d="M347.737 265.542H0.344635C0.253232 265.542 0.165573 265.505 0.100941 265.441C0.0363094 265.376 0 265.288 0 265.197C0 265.106 0.0363094 265.018 0.100941 264.953C0.165573 264.889 0.253232 264.852 0.344635 264.852H347.737C347.829 264.852 347.916 264.889 347.981 264.953C348.046 265.018 348.082 265.106 348.082 265.197C348.082 265.288 348.046 265.376 347.981 265.441C347.916 265.505 347.829 265.542 347.737 265.542Z" fill="#3F3D56"/>
<path d="M185.68 232.184C185.689 231.398 185.386 230.64 184.837 230.077C184.287 229.514 183.537 229.192 182.75 229.183H168.276V264.852H185.68V232.184Z" fill="#3F3D56"/>
<path d="M168.62 264.508H150.527V232.284C150.528 231.416 150.873 230.584 151.487 229.97C152.101 229.356 152.933 229.011 153.801 229.01H168.62V264.508ZM151.216 263.818H167.931V229.7H153.801C153.116 229.7 152.459 229.973 151.974 230.457C151.49 230.942 151.217 231.599 151.216 232.284V263.818Z" fill="#3F3D56"/>
<path d="M152.767 249.171C153.338 249.171 153.801 248.709 153.801 248.138C153.801 247.567 153.338 247.104 152.767 247.104C152.196 247.104 151.733 247.567 151.733 248.138C151.733 248.709 152.196 249.171 152.767 249.171Z" fill="#3F3D56"/>
</g>
<defs>
<clipPath id="clip0">
<rect width="348.082" height="265.563" fill="white"/>
</clipPath>
</defs>
</svg>
