<svg width="291" height="267" viewBox="0 0 291 267" fill="none" xmlns="http://www.w3.org/2000/svg">
<g clip-path="url(#clip0)">
<path opacity="0.1" d="M163.018 41.758C147.067 41.205 131.877 36.0581 117.379 30.4315C102.881 24.8049 88.4963 18.5621 72.929 15.5639C62.9151 13.645 51.4654 13.3719 43.397 18.7386C35.635 23.9055 33.1232 32.8234 31.7774 41.0984C30.778 47.3246 30.165 53.8773 32.9467 59.7038C34.8755 63.7513 38.3034 67.1526 40.672 71.0302C48.9203 84.5154 43.0905 101.145 34.1526 114.314C29.9618 120.49 25.0981 126.383 21.8634 132.969C18.6287 139.555 17.1296 147.077 19.9612 153.787C22.7662 160.449 29.4521 165.426 36.6944 168.941C51.4054 176.073 68.7383 178.115 85.6413 179.268C123.059 181.826 160.672 180.72 198.19 179.601C212.071 179.188 226.016 178.771 239.674 176.626C247.26 175.433 255.092 173.541 260.598 168.964C267.594 163.164 269.32 153.347 264.636 146.075C256.777 133.879 235.057 130.847 229.564 117.759C226.542 110.553 229.647 102.528 234.038 95.8485C243.462 81.5238 259.256 68.9381 260.089 52.5414C260.662 41.2916 253.066 30.0218 241.327 24.695C229.021 19.1151 211.955 19.818 202.877 29.0557C193.529 38.5899 177.099 42.2477 163.018 41.758Z" fill="#27359E"/>
<path opacity="0.1" d="M131.337 266.985C187.262 266.985 232.599 260.852 232.599 253.286C232.599 245.721 187.262 239.588 131.337 239.588C75.4116 239.588 30.0751 245.721 30.0751 253.286C30.0751 260.852 75.4116 266.985 131.337 266.985Z" fill="#27359E"/>
<path d="M156.328 69.8243C156.328 69.8243 153.194 63.6381 153.617 61.7992C154.04 59.9603 151.411 56.0327 151.411 56.0327L151.581 49.5166C151.581 49.5166 151.218 50.1829 149.326 50.7659C149.166 50.556 148.993 50.3495 148.813 50.1529C148.128 49.4393 147.366 48.8036 146.541 48.2574L143.21 41.0684L139.988 36.1348C139.988 36.1348 134.908 25.8077 129.661 23.5291L128.835 21.9134C128.862 21.8973 128.882 21.8717 128.892 21.8415C128.901 21.8113 128.899 21.7787 128.885 21.7502L128.046 20.1078C128.031 20.0794 128.006 20.0576 127.975 20.0465C127.945 20.0354 127.912 20.0359 127.882 20.0479L127.079 18.4755C126.773 16.4378 125.972 14.5061 124.748 12.8489C124.664 12.7323 124.574 12.6257 124.488 12.5158L125.794 12.4691C126.94 12.4258 128.219 12.3259 128.988 11.4697C129.264 11.1506 129.468 10.7756 129.585 10.3704C129.684 10.0529 129.748 9.72565 129.778 9.39433C129.778 9.34436 129.778 9.29439 129.778 9.24775C129.778 9.13449 129.778 9.02345 129.778 8.91462C129.778 8.82468 129.778 8.73806 129.778 8.64812C129.778 8.55817 129.778 8.50487 129.778 8.43491C129.778 8.36496 129.741 8.20505 129.721 8.10178C129.721 8.05848 129.721 8.01517 129.695 7.97186C129.667 7.84136 129.632 7.71238 129.591 7.58543C129.582 7.56053 129.574 7.53491 129.568 7.50881C129.521 7.37556 129.471 7.2423 129.415 7.11238C129.406 7.09526 129.398 7.07743 129.391 7.05908C129.331 6.92916 129.265 6.80257 129.195 6.67931L129.175 6.63934C129.15 6.58763 129.123 6.53756 129.092 6.48943C128.189 5.07029 126.603 4.24079 125.094 3.49125C123.686 2.75087 122.24 2.08372 120.763 1.49246C115.271 -0.567094 109.205 -0.481452 103.774 1.73232C103.237 1.93545 102.729 2.20637 102.261 2.53849C101.609 3.09032 101.052 3.74528 100.612 4.47732L98.0305 8.29167C97.6697 8.75567 97.3872 9.27555 97.1943 9.83073C96.7113 11.643 98.227 13.4585 98.0571 15.3274C97.9705 16.2568 97.4708 17.1096 97.3742 18.0391C97.2509 19.2384 97.8073 20.3943 98.3503 21.477L102.045 28.8059C101.848 29.7686 101.632 30.7547 101.395 31.7075C99.6928 33.4664 99.1198 34.4258 98.9632 34.9455L98.9133 34.9721C98.5761 35.1899 98.2861 35.4731 98.0604 35.805L94.5492 39.2162C94.5492 39.2162 88.4463 40.8019 87.177 42.8107C87.177 42.8107 77.5995 42.391 77.6828 55.7662C77.6828 55.7662 77.2597 60.7831 77.0165 61.4527C76.7734 62.1223 77.0165 68.8915 77.0165 68.8915L76.9033 82.6032C76.9033 82.6032 76.5368 89.8755 76.9033 92.4672C77.2697 95.059 77.6928 104.923 77.6928 104.923C77.6928 104.923 79.9814 114.537 79.1353 117.965C78.3224 121.246 79.1353 128.422 80.4678 128.452C80.721 128.975 81.0108 129.232 81.3273 129.085C81.465 129.025 81.6063 128.974 81.7503 128.932V137.123C81.7503 137.123 80.1013 148.6 81.9502 150.782C80.7243 152.527 79.2852 155.506 78.9187 156.288L65.9599 155.592L64.3109 156.055L62.7985 156.478L61.8824 177.556L62.2489 177.582L62.2222 178.225L63.0883 178.288L61.8824 199.516L79.8215 200.991C79.032 202.76 78.1159 204.656 77.7594 204.839C77.0932 205.172 75.6407 204.173 75.3009 204.586C74.9611 204.999 73.9451 205.505 72.7591 205.252C71.5732 204.999 70.8103 206.338 70.8103 206.338C70.8103 206.338 70.9836 206.491 71.2434 206.774C69.3179 206.541 66.8827 207.574 65.5602 208.24C64.9672 208.54 64.5974 208.763 64.5974 208.763H61.0995L63.0217 221.026L64.3776 221.952L64.7107 231.613C64.7107 231.613 70.1341 248.333 72.6192 248.223C72.7806 248.217 72.9388 248.176 73.0831 248.104C73.2274 248.032 73.3544 247.929 73.4554 247.803C74.7879 246.264 73.8651 240.977 73.8651 240.977V232.176C73.8651 232.176 75.8972 231.283 75.6707 230.613C75.4442 229.944 78.9487 222.618 79.2619 221.952C79.2708 221.946 79.2781 221.938 79.2828 221.929C79.2875 221.92 79.2895 221.909 79.2885 221.899C79.2885 221.146 80.8142 220.31 80.7276 219.976C80.641 219.643 84.4587 217.551 84.7252 215.712C84.9917 213.874 87.5202 214.876 87.5202 214.876L90.7382 211.178C90.8348 215.686 91.0181 218.84 91.3345 219.64C92.8603 223.488 93.4532 229.507 93.4532 229.507C93.4532 229.507 92.5205 234.105 93.4532 235.61C94.0262 236.53 95.3587 237.516 96.2848 238.332C95.3221 241.25 95.4587 247.453 95.4587 247.453V251.018L102.578 253.016C102.578 253.016 102.801 251.234 103.141 251.234C103.48 251.234 108.001 254.689 108.001 254.689C108.001 254.689 125.404 254.912 129.808 254.689C131.473 254.605 131.927 253.889 131.67 253.023C131.247 251.581 128.872 249.712 126.76 249.569C123.368 249.345 119.074 245.781 119.074 245.781C119.074 245.781 119.407 244.998 117.605 243.885C116.359 243.119 112.911 240.018 110.779 238.202C110.879 238.065 110.983 237.929 111.079 237.782C111.079 237.782 108.198 233.785 108.794 232.012C109.39 230.24 108.537 227.682 108.537 227.682C108.537 227.682 106.928 222.748 106.928 220.24C106.928 218.651 106.689 209.613 106.515 203.203L108.001 203.327L108.031 202.687L108.697 202.747L114.997 203.327L114.804 196.594C117.838 195.261 120.364 194.026 121.41 193.236C124.967 190.571 128.019 190.394 128.019 190.394C128.019 190.394 135.221 186.55 136.324 184.961C137.427 183.372 137.323 171.836 137.323 171.836L136.73 147.111V147.091C136.73 147.091 136.224 135.138 135.205 132.546C134.831 131.587 133.909 128.389 132.899 124.738C133.479 124.678 134.065 124.703 134.638 124.811C134.675 125.704 134.698 126.317 134.698 126.527C134.698 127.946 136.73 129.152 136.73 129.152L135.291 97.171V75.4143C139.728 76.8267 150.459 77.2665 150.459 77.2665C158.191 76.86 156.328 69.8243 156.328 69.8243ZM114.474 42.3477H114.45C114.608 41.5092 114.814 40.6806 115.067 39.8658L114.474 42.3477ZM85.3515 152.038C87.9799 152.471 91.0147 152.344 91.2446 151.835C91.2679 151.785 91.2979 151.695 91.3379 151.578C91.4211 151.725 91.5011 151.874 91.5844 152.028L91.3279 156.851V156.961L82.6665 156.495C83.2728 153.913 84.4187 152.654 85.3515 152.038ZM114.224 176.376L114.001 168.564C114.387 167.125 114.734 165.819 115.03 164.7C115.163 165.629 115.277 166.486 115.363 167.275C116.183 174.687 114.974 176.133 114.224 176.376ZM138.876 59.2541C138.379 59.4439 136.49 58.2547 134.698 57.0221C134.698 56.7956 134.715 56.5724 134.725 56.3558C134.978 51.2556 126.673 48.0808 124.131 47.4945C123.514 47.3353 122.916 47.112 122.346 46.8283C120.991 46.1575 119.675 45.4135 118.401 44.5996L118.435 44.503C118.435 44.503 115.157 42.4276 115.087 39.8392C115.834 37.4848 116.777 35.1971 117.905 33C117.968 32.8701 118.038 32.7335 118.105 32.6036C119.654 32.1218 121.1 31.3558 122.369 30.3449C122.879 37.0076 132.52 42.7408 132.52 42.7408L133.549 44.4064L133.792 44.7995C133.272 45.106 133.023 45.3525 133.199 45.4957C133.932 46.0821 135.704 49.4 136.437 50.8025C136.637 51.1823 136.77 51.4188 136.77 51.4188C136.77 51.4188 138.346 55.7062 139.249 59.294C139.129 59.2439 138.997 59.23 138.869 59.2541H138.876Z" fill="url(#paint0_linear)"/>
<path d="M142.6 41.9745L142.487 42.1244L142.1 42.6407L134.688 47.8775L133.116 45.2924L132.116 43.6268C132.116 43.6268 117.342 34.7655 123.695 26.224C130.048 17.6826 139.435 37.0508 139.435 37.0508L142.6 41.9745Z" fill="#FFC5D3"/>
<path d="M127.693 21.1079C127.661 21.0455 127.585 21.0204 127.523 21.0518C127.46 21.0833 127.435 21.1594 127.467 21.2218L128.291 22.8583C128.322 22.9207 128.398 22.9458 128.461 22.9144C128.523 22.8829 128.548 22.8068 128.517 22.7444L127.693 21.1079Z" fill="#3A3768"/>
<path d="M119.234 23.3959L119.231 23.3974C119.197 23.4148 119.183 23.4568 119.2 23.4913L119.446 23.9793C119.463 24.0138 119.505 24.0277 119.54 24.0103L119.543 24.0088C119.577 23.9914 119.591 23.9493 119.574 23.9148L119.328 23.4269C119.311 23.3924 119.269 23.3785 119.234 23.3959Z" fill="#3A3768"/>
<path d="M119.907 24.5514C119.887 24.5119 119.839 24.4961 119.8 24.5159C119.76 24.5358 119.744 24.5838 119.764 24.6233L120.23 25.5486C120.25 25.5881 120.298 25.6039 120.337 25.5841C120.377 25.5642 120.393 25.5161 120.373 25.4767L119.907 24.5514Z" fill="#3A3768"/>
<path d="M120.625 25.9916C120.606 25.9538 120.56 25.9386 120.523 25.9576C120.485 25.9766 120.47 26.0227 120.489 26.0605L120.962 27.0007C120.981 27.0385 121.027 27.0537 121.065 27.0347C121.103 27.0156 121.118 26.9696 121.099 26.9318L120.625 25.9916Z" fill="#3A3768"/>
<path d="M125.108 17.8949L118.883 21.0295C118.515 21.2148 118.367 21.6635 118.552 22.0316L125.616 36.0572C125.801 36.4253 126.25 36.5734 126.618 36.388L132.842 33.2534C133.21 33.0681 133.358 32.6194 133.173 32.2513L126.11 18.2257C125.924 17.8576 125.476 17.7095 125.108 17.8949Z" fill="#3A3768"/>
<path d="M124.311 18.7852C124.276 18.8029 124.244 18.8275 124.218 18.8576C124.192 18.8877 124.172 18.9226 124.159 18.9605C124.147 18.9983 124.142 19.0382 124.145 19.0779C124.149 19.1176 124.16 19.1563 124.178 19.1916L124.205 19.2482C124.223 19.2839 124.234 19.3228 124.237 19.3627C124.241 19.4026 124.236 19.4428 124.223 19.4809C124.211 19.519 124.191 19.5543 124.165 19.5847C124.139 19.6151 124.107 19.64 124.071 19.658L120.867 21.2704C120.831 21.2886 120.793 21.2997 120.753 21.3029C120.713 21.3061 120.673 21.3014 120.635 21.2889C120.598 21.2765 120.563 21.2567 120.533 21.2307C120.502 21.2046 120.478 21.1728 120.46 21.1371L120.43 21.0805C120.413 21.0448 120.388 21.013 120.358 20.9868C120.328 20.9607 120.293 20.9407 120.255 20.928C120.218 20.9153 120.178 20.9102 120.138 20.9129C120.098 20.9156 120.059 20.9262 120.024 20.9439L119.401 21.2604C119.333 21.294 119.272 21.3408 119.222 21.3982C119.172 21.4556 119.134 21.5224 119.11 21.5947C119.086 21.6669 119.077 21.7432 119.083 21.8191C119.089 21.895 119.11 21.9689 119.144 22.0366L125.954 35.5517C126.023 35.6886 126.145 35.7923 126.291 35.8403C126.436 35.8884 126.596 35.8768 126.733 35.8082L132.323 32.9932C132.46 32.9234 132.564 32.8022 132.612 32.6563C132.66 32.5103 132.648 32.3512 132.579 32.2137L125.767 18.6919C125.733 18.6238 125.685 18.5632 125.628 18.5134C125.57 18.4637 125.503 18.4258 125.43 18.402C125.358 18.3781 125.282 18.3688 125.206 18.3746C125.13 18.3803 125.055 18.401 124.987 18.4354L124.311 18.7852Z" fill="#27359E"/>
<path d="M122.449 19.8088L121.607 20.2328C121.548 20.2626 121.524 20.3347 121.554 20.3939C121.583 20.453 121.656 20.4768 121.715 20.447L122.557 20.023C122.616 19.9932 122.64 19.9211 122.61 19.8619C122.58 19.8028 122.508 19.779 122.449 19.8088Z" fill="#E6E8EC"/>
<path d="M122.885 19.848C122.961 19.848 123.022 19.7868 123.022 19.7114C123.022 19.636 122.961 19.5748 122.885 19.5748C122.81 19.5748 122.749 19.636 122.749 19.7114C122.749 19.7868 122.81 19.848 122.885 19.848Z" fill="#E6E8EC"/>
<path d="M129.108 70.6238L127.026 126.497C127.026 126.497 134.022 124.165 135.105 125.914C136.187 127.662 133.939 97.9305 133.939 97.9305L129.108 70.6238Z" fill="#5F5570"/>
<path opacity="0.15" d="M129.108 70.6238L127.026 126.497C127.026 126.497 134.022 124.165 135.105 125.914C136.187 127.662 133.939 97.9305 133.939 97.9305L129.108 70.6238Z" fill="black"/>
<path d="M129.441 254.789C125.111 255.012 108.011 254.789 108.011 254.789C108.011 254.789 103.567 251.347 103.234 251.347C102.901 251.347 102.681 253.123 102.681 253.123L95.6853 251.124V247.573C95.6853 247.573 95.4621 237.462 97.5708 237.023C99.6795 236.583 109.011 237.023 109.011 237.023C109.344 236.913 115.673 242.909 117.449 244.018C119.224 245.128 118.891 245.907 118.891 245.907C118.891 245.907 123.112 249.458 126.443 249.682C128.519 249.822 130.854 251.68 131.27 253.123C131.524 253.992 131.074 254.705 129.441 254.789Z" fill="#BC8487"/>
<path opacity="0.1" d="M129.441 254.789C125.111 255.012 108.011 254.789 108.011 254.789C108.011 254.789 103.567 251.347 103.234 251.347C102.901 251.347 102.681 253.123 102.681 253.123L95.6852 251.124V247.643L102.235 250.015L107.455 253.123H131.27C131.523 253.992 131.074 254.705 129.441 254.789Z" fill="black"/>
<g opacity="0.1">
<path d="M109.997 249.572C109.997 249.572 115.327 244.465 118.891 245.907L109.997 249.572Z" fill="black"/>
<path d="M109.997 249.572C109.997 249.572 115.327 244.465 118.891 245.907" stroke="black" stroke-miterlimit="10"/>
</g>
<path d="M76.2504 230.803C76.4736 231.469 74.4748 232.359 74.4748 232.359V241.13C74.4748 241.13 75.3809 246.397 74.0717 247.933C73.9734 248.057 73.8492 248.159 73.7077 248.231C73.5662 248.303 73.4108 248.343 73.2522 248.349C70.8103 248.459 65.4802 231.803 65.4802 231.803L65.1471 222.178L63.8146 221.256L61.9257 209.04H65.3703C65.3703 209.04 65.7334 208.817 66.3164 208.517C67.982 207.667 71.4699 206.185 73.3654 207.597L79.8049 222.105C79.8049 222.105 76.0305 230.137 76.2504 230.803Z" fill="#BC8487"/>
<path opacity="0.1" d="M74.0717 247.933C73.9734 248.057 73.8492 248.159 73.7077 248.231C73.5662 248.303 73.4108 248.343 73.2522 248.349C70.8103 248.459 65.4802 231.803 65.4802 231.803L65.1471 222.178L63.8146 221.256L61.9257 209.04H65.3703C65.3703 209.04 65.7334 208.817 66.3164 208.517L67.1459 221.032L67.589 231.803C67.589 231.803 71.7731 243.529 74.0717 247.933Z" fill="black"/>
<path d="M135.854 185.304C134.771 186.887 127.692 190.718 127.692 190.718C127.692 190.718 124.694 190.884 121.196 193.549C119.387 194.928 113.101 197.663 107.455 199.985C102.181 202.154 97.4608 203.96 97.4608 203.96L92.0241 210.289L87.8833 215.109C87.8833 215.109 85.3848 214.11 85.1349 215.942C84.8851 217.775 81.1374 219.857 81.2206 220.19C81.3039 220.523 79.8048 221.356 79.8048 222.105C79.8048 222.855 74.2249 216.692 74.3082 212.944C74.3915 209.196 71.4766 206.615 71.4766 206.615C71.4766 206.615 72.2261 205.282 73.3921 205.532C74.558 205.782 75.5574 205.282 75.8905 204.866C76.2237 204.449 77.6395 205.449 78.3057 205.116C78.972 204.782 81.6371 198.203 81.6371 198.203L92.0208 191.237L112.675 177.392L113.628 176.753C113.628 176.753 116.376 178.012 115.26 167.695C115.043 165.696 114.68 163.268 114.127 160.309C110.713 142.07 122.955 139.988 122.955 139.988L133.699 143.57L136.281 147.567V147.587L136.864 172.219C136.864 172.219 136.937 183.722 135.854 185.304Z" fill="#433A59"/>
<path opacity="0.1" d="M107.371 196.964C107.371 196.964 107.405 198.146 107.455 199.985C102.181 202.154 97.4608 203.96 97.4608 203.96L92.0241 210.289C91.9342 205.042 91.9542 198.226 92.0241 191.241L112.678 177.396C110.123 186.867 107.371 196.964 107.371 196.964Z" fill="black"/>
<path opacity="0.1" d="M136.271 147.577V147.597L120.114 147.91C120.114 147.91 117.282 158.987 116.866 161.319C116.762 161.892 116.136 164.34 115.25 167.705C115.034 165.706 114.67 163.277 114.117 160.319C110.703 142.08 122.945 139.998 122.945 139.998L133.689 143.579L136.271 147.577Z" fill="black"/>
<path d="M93.7131 117.345L91.631 157.321C91.631 157.321 90.132 216.035 91.631 219.866C93.1301 223.697 93.7131 229.694 93.7131 229.694C93.7131 229.694 92.797 234.274 93.7131 235.773C94.6292 237.273 97.5441 238.938 97.4608 239.771C97.3776 240.604 106.372 245.101 111.036 237.939C111.036 237.939 108.204 233.941 108.787 232.192C109.37 230.443 108.537 227.862 108.537 227.862C108.537 227.862 106.955 222.948 106.955 220.439C106.955 217.931 106.372 196.954 106.372 196.954C106.372 196.954 115.45 163.641 115.866 161.309C116.283 158.977 119.114 147.9 119.114 147.9L136.271 147.567C136.271 147.567 135.771 135.658 134.772 133.076C133.772 130.494 128.858 111.589 128.858 111.589L93.7131 117.345Z" fill="#433A59"/>
<path d="M65.0805 156.535L63.5914 156.961L63.5314 158.434L108.178 159.01V158.43L65.0805 156.535Z" fill="#7B728F"/>
<path d="M117.742 33.9361C111.246 47.1114 115.28 49.8664 115.923 50.2062C114.547 49.5666 96.6646 41.1651 99.0165 39.033C100.546 37.6439 101.855 31.6009 102.624 27.2702C103.081 24.6851 103.347 22.7096 103.347 22.7096L122.113 26.1508C120.294 29.0824 118.848 31.6642 117.742 33.9361Z" fill="#FFC5D3"/>
<path opacity="0.1" d="M142.5 42.1244L142.114 42.6408L134.688 47.8776L133.116 45.2925C135.404 43.96 142.267 41.6281 142.267 41.6281L142.5 42.1244Z" fill="black"/>
<path d="M149.346 54.1337C148.68 56.4657 137.437 54.1337 137.437 54.1337L136.271 52.3015C136.271 52.3015 136.154 52.0683 135.957 51.6886C135.238 50.2927 133.496 46.9881 132.776 46.4018C131.86 45.6522 142.603 41.9878 142.603 41.9878L145.895 49.1501C146.706 49.6956 147.455 50.329 148.127 51.039C148.96 51.9417 149.649 53.0711 149.346 54.1337Z" fill="#E5E8EF"/>
<path d="M130.691 55.2065C130.691 55.2065 137.353 60.4634 138.353 60.0836C139.352 59.7038 155.509 70.6139 155.509 70.6139C155.509 70.6139 157.341 77.6096 149.762 78.026C149.762 78.026 133.689 77.3598 133.023 75.0278C132.356 72.6959 130.691 55.2065 130.691 55.2065Z" fill="#5F5570"/>
<path opacity="0.1" d="M112.535 44.6396L105.289 52.1351L115.45 116.763L119.447 114.431C119.447 114.431 129.775 119.011 130.607 114.764C131.44 110.516 131.21 93.7765 131.21 93.7765L129.858 63.5348C129.858 63.5348 125.111 52.9579 125.111 52.6248C125.111 52.2917 118.265 47.1281 118.265 47.1281L115.034 44.6296L112.535 44.6396Z" fill="black"/>
<path d="M112.535 43.6401L105.289 51.1356L115.45 115.763L119.447 113.431C119.447 113.431 129.775 118.012 130.607 113.764C131.44 109.517 131.21 92.777 131.21 92.777L129.858 62.5353C129.858 62.5353 125.111 51.9584 125.111 51.6253C125.111 51.2921 118.265 46.1286 118.265 46.1286L115.034 43.6301L112.535 43.6401Z" fill="#E5E8EF"/>
<path opacity="0.1" d="M112.951 44.7228L110.953 48.8037L112.951 50.9124C112.951 50.9124 120.114 65.3769 118.698 73.9551L120.197 102.188L125.027 106.935L128.858 102.511L127.026 76.86C127.026 76.86 122.113 55.7061 116.949 49.1268L115.45 43.297L112.951 44.7228Z" fill="black"/>
<path d="M112.951 44.0565L110.953 48.1374L112.951 50.2461C112.951 50.2461 120.114 64.7107 118.698 73.2888L120.197 101.522L125.027 106.269L128.858 101.845L127.026 76.1937C127.026 76.1937 122.113 55.0399 116.949 48.4605L115.45 42.6307L112.951 44.0565Z" fill="#BC8487"/>
<path opacity="0.1" d="M122.113 26.1508C120.294 29.0823 118.861 31.6641 117.742 33.936C116.563 34.2837 115.34 34.4599 114.111 34.4591C109.993 34.4591 107.621 31.6108 105.289 28.586C104.756 27.8997 103.004 28.0596 102.624 27.2534C103.081 24.6683 103.347 22.6929 103.347 22.6929L122.113 26.1508Z" fill="black"/>
<path d="M126.88 21.3537C126.879 24.3948 125.794 27.3359 123.818 29.6479C121.843 31.9599 119.107 33.4909 116.103 33.9655C113.1 34.4401 110.025 33.8271 107.433 32.2367C104.841 30.6464 102.902 28.1832 101.964 25.2903C101.026 22.3975 101.152 19.2649 102.318 16.4564C103.484 13.6479 105.614 11.3477 108.325 9.96991C111.036 8.59209 114.15 8.22705 117.106 8.94048C120.062 9.6539 122.667 11.399 124.451 13.8616C126.03 16.0407 126.88 18.6628 126.88 21.3537Z" fill="#FFC5D3"/>
<path opacity="0.1" d="M110.037 49.8031L99.5429 37.1441C99.5429 37.1441 98.5735 36.7543 101.848 33.3264C101.848 33.3264 113.874 42.7007 114.62 44.2931C115.367 45.8855 110.037 49.8031 110.037 49.8031Z" fill="black"/>
<path d="M109.703 49.1368L99.2098 36.4778C99.2098 36.4778 98.2403 36.0881 101.515 32.6602C101.515 32.6602 113.541 42.0345 114.287 43.6268C115.033 45.2192 109.703 49.1368 109.703 49.1368Z" fill="#E5E8EF"/>
<path d="M136.271 129.705C136.271 129.705 134.272 128.505 134.272 127.089C134.272 125.674 133.272 105.686 133.272 105.686C133.272 105.686 131.807 93.7563 130.274 84.2754C129.375 78.6888 128.452 73.9484 127.799 73.0089L127.772 72.969C126.023 70.7203 126.357 59.727 115.447 43.6534C115.593 43.7534 119.354 46.3918 122.109 47.7176C122.67 47.9994 123.258 48.2227 123.865 48.3839C126.363 48.9669 134.525 52.1316 134.275 57.2119C134.025 62.2921 134.858 73.9517 134.858 73.9517V97.8472L136.271 129.705Z" fill="#5F5570"/>
<path d="M136.271 52.3015C136.271 52.3015 139.768 61.9623 139.269 64.3775C138.769 66.7927 147.347 76.287 147.347 76.287L155.509 70.6237C155.509 70.6237 152.427 64.4608 152.844 62.6286C153.26 60.7964 150.679 56.8821 150.679 56.8821L150.845 50.3927C150.845 50.3927 149.346 53.2077 136.271 52.3015Z" fill="#5F5570"/>
<path opacity="0.1" d="M124.451 13.8616L118.122 14.1014C117.503 14.0974 116.887 14.1747 116.289 14.3313C114.027 15.0275 112.985 17.4327 112.901 19.5948C112.818 21.7568 111.569 24.1786 109.147 24.3685C108.906 24.4095 108.659 24.3545 108.457 24.2153C108.304 24.0519 108.202 23.8468 108.164 23.6256C107.817 22.3658 107.28 21.1662 106.572 20.0678C105.573 20.2477 104.833 21.1971 104.573 22.1898C104.313 23.1826 104.383 24.2286 104.387 25.258C104.39 26.5653 104.264 27.8697 104.01 29.1523C102.977 27.8117 102.222 26.2791 101.786 24.6438C101.351 23.0084 101.245 21.3028 101.475 19.6262C101.705 17.9496 102.266 16.3354 103.125 14.8774C103.984 13.4195 105.124 12.1468 106.48 11.1335C107.835 10.1201 109.378 9.38628 111.02 8.97462C112.661 8.56296 114.368 8.48169 116.041 8.73554C117.714 8.98938 119.32 9.57327 120.766 10.4533C122.211 11.3333 123.467 12.4918 124.461 13.8616H124.451Z" fill="black"/>
<path d="M115.96 13.9982C116.558 13.8415 117.174 13.7642 117.792 13.7683L125.477 13.4818C126.603 13.4385 127.859 13.3386 128.615 12.5024C128.887 12.1831 129.087 11.8094 129.202 11.4064C129.399 10.7625 129.458 10.0838 129.372 9.41562C129.286 8.74746 129.059 8.1053 128.705 7.53208C127.816 6.11628 126.257 5.29344 124.771 4.5339C123.388 3.79514 121.968 3.12799 120.517 2.53512C115.126 0.487812 109.157 0.573593 103.827 2.77497C103.3 2.97711 102.801 3.2446 102.341 3.57116C101.699 4.12162 101.152 4.77447 100.722 5.50332L98.1937 9.31433C97.8449 9.77968 97.5758 10.2998 97.3975 10.8534C96.9212 12.6623 98.3969 14.4712 98.2437 16.3334C98.1571 17.2595 97.6674 18.109 97.5774 19.0351C97.4575 20.231 98.0039 21.367 98.5402 22.4564L102.984 31.4209C103.702 29.3305 104.065 27.135 104.06 24.9249C104.06 23.8955 103.974 22.8495 104.247 21.8567C104.52 20.864 105.246 19.9146 106.246 19.7347C106.955 20.8325 107.493 22.0323 107.841 23.2925C107.878 23.5139 107.98 23.7192 108.134 23.8822C108.335 24.0217 108.583 24.0767 108.824 24.0354C111.259 23.8455 112.488 21.447 112.578 19.2616C112.668 17.0763 113.698 14.6944 115.96 13.9982Z" fill="#8F7080"/>
<path d="M63.5914 156.961L66.7028 156.072L113.618 158.627L108.454 159.293L63.5914 156.961Z" fill="#7B728F"/>
<path opacity="0.1" d="M63.5914 156.961L66.7028 156.072L113.618 158.627L108.454 159.293L63.5914 156.961Z" fill="black"/>
<path d="M114.894 203.6L108.704 203.023L106.532 202.823V168.398L107.105 160.406L107.232 158.627H113.618L114.894 203.6Z" fill="#7B728F"/>
<path opacity="0.1" d="M113.201 202.377L108.264 201.831L106.532 201.641V169.001L106.988 161.425L107.088 159.736H112.182L113.201 202.377Z" fill="black"/>
<path d="M79.3452 156.961C79.3452 156.961 82.4266 150.202 83.7192 149.992C85.0117 149.782 87.3836 149.992 87.3836 149.992L87.1737 151.951C87.1737 151.951 84.009 152.201 83.0096 157.488L79.3452 156.961Z" fill="#7B728F"/>
<path opacity="0.1" d="M79.3452 156.961C79.3452 156.961 82.4266 150.202 83.7192 149.992C85.0117 149.782 87.3836 149.992 87.3836 149.992L87.1737 151.951C87.1737 151.951 84.009 152.201 83.0096 157.488L79.3452 156.961Z" fill="black"/>
<path d="M91.2979 149.286C91.2979 149.286 99.5829 153.407 98.5002 158.237L94.0029 157.987C94.0029 157.987 91.8376 150.785 90.1319 150.409C88.4263 150.032 91.2979 149.286 91.2979 149.286Z" fill="#7B728F"/>
<path d="M122.112 84.0323V84.2755L121.946 112.015C121.946 112.015 117.699 135.334 116.533 136.251C115.367 137.167 89.7988 134.668 89.7988 134.668L78.2225 56.6322C78.1392 43.307 87.5501 43.7234 87.5501 43.7234C88.7994 41.7246 94.7957 40.1423 94.7957 40.1423L98.1271 36.8942L98.2337 36.7443C98.455 36.4143 98.7405 36.1322 99.0732 35.9148C99.7594 35.5184 100.196 36.0414 100.446 36.5578C100.558 36.8002 100.645 37.0536 100.705 37.314C114.201 47.2113 122.112 84.0323 122.112 84.0323Z" fill="#5F5570"/>
<path opacity="0.1" d="M121.779 84.3655V84.6087C117.592 76.9467 101.458 47.9176 97.0444 46.4718L98.7434 45.3059C98.7434 45.3059 99.876 44.6396 97.794 43.9734C97.794 43.9734 94.5459 44.3898 94.4626 40.4755L97.9006 37.0775L98.7401 36.248L100.113 36.891C100.225 37.1334 100.312 37.3868 100.372 37.6472C113.868 47.5445 121.779 84.3655 121.779 84.3655Z" fill="black"/>
<path d="M122.113 84.0322V84.2754C117.925 76.6134 101.792 47.5844 97.3775 46.1386L99.0765 44.9726C99.0765 44.9726 100.209 44.3064 98.1271 43.6401C98.1271 43.6401 94.8791 44.0565 94.7958 40.1422L98.2337 36.7443L99.0732 35.9148L100.446 36.5577C100.558 36.8002 100.645 37.0536 100.706 37.3139C114.201 47.2113 122.113 84.0322 122.113 84.0322Z" fill="#433A59"/>
<path opacity="0.1" d="M128.136 73.3288L128.109 73.2888C126.36 71.0402 126.693 60.0468 115.783 43.9733C115.93 44.0732 119.691 46.7116 122.446 48.0375L121.676 50.5759L123.342 51.4654L128.136 73.3288Z" fill="black"/>
<path d="M127.802 72.9956L127.776 72.9557C126.027 70.707 126.36 59.7137 115.45 43.6401C115.597 43.7401 119.358 46.3785 122.113 47.7043L121.343 50.2428L123.009 51.1323L127.802 72.9956Z" fill="#433A59"/>
<path opacity="0.1" d="M114.97 41.0751L114.287 43.96C114.287 43.96 114.787 46.8482 117.782 47.0981L118.265 45.7223C118.265 45.7223 115.034 43.6502 114.97 41.0751Z" fill="black"/>
<path d="M114.97 40.7419L114.287 43.6269C114.287 43.6269 114.787 46.5151 117.782 46.765L118.265 45.3891C118.265 45.3891 115.034 43.317 114.97 40.7419Z" fill="#E5E8EF"/>
<path opacity="0.1" d="M110.663 159.093L108.704 203.023L106.532 202.824V168.398L107.105 160.406L110.663 159.093Z" fill="black"/>
<path d="M64.0378 176.06L62.7053 199.822L108.011 203.6L109.997 159.093L64.0378 176.06Z" fill="#7B728F"/>
<path opacity="0.1" d="M63.0384 178.615L63.9245 157.628L110.33 159.76L108.121 181.946L63.0384 178.615Z" fill="black"/>
<path d="M62.7053 177.949L63.5914 156.961L109.997 159.093L107.788 181.28L62.7053 177.949Z" fill="#7B728F"/>
<path d="M87.8 177.975H82.2201V184.471H87.8V177.975Z" fill="#C3BBC8"/>
<path d="M83.0529 135.418L82.2201 137.666C82.2201 137.666 80.4711 149.992 82.6365 151.491C84.8018 152.99 91.2146 153.074 91.5477 152.324C91.8809 151.575 94.2128 143.08 94.2128 143.08C94.2128 143.08 96.2948 149.326 97.3775 148.826C98.4602 148.327 94.879 136.454 94.879 136.454L83.0529 135.418Z" fill="#FFC5D3"/>
<path opacity="0.1" d="M82.22 126.09V138C82.22 138 91.048 139.665 94.879 136.787C94.879 136.787 91.2979 125.257 92.6304 122.342C93.9629 119.428 82.22 126.09 82.22 126.09Z" fill="black"/>
<path d="M82.22 125.757V137.666C82.22 137.666 91.048 139.332 94.879 136.454C94.879 136.454 91.2979 124.924 92.6304 122.009C93.9629 119.094 82.22 125.757 82.22 125.757Z" fill="#E5E8EF"/>
<path opacity="0.1" d="M81.2207 56.0493L78.8888 57.2986C78.8888 57.2986 78.4724 62.2955 78.2225 62.9618C77.9727 63.6281 78.2225 70.374 78.2225 70.374L78.1092 84.0323C78.1092 84.0323 77.7495 91.2779 78.1092 93.8597C78.469 96.4415 78.8721 106.269 78.8721 106.269C78.8721 106.269 81.1241 115.846 80.2913 119.261C79.4584 122.676 80.3745 130.338 81.7903 129.671C83.2062 129.005 96.2815 126.423 96.9478 125.924C97.6141 125.424 97.2809 120.76 96.9478 120.177C96.6147 119.594 94.6159 111.682 94.7825 109.85C94.949 108.018 94.1995 91.9442 94.1995 91.9442C94.1995 91.9442 95.4487 74.7879 95.9484 70.7904C96.4481 66.7928 94.949 55.0499 93.6165 54.8834C92.284 54.7168 88.383 45.639 81.2207 56.0493Z" fill="black"/>
<path d="M80.5544 55.3831L78.2225 56.6323C78.2225 56.6323 77.8061 61.6293 77.5562 62.2955C77.3064 62.9618 77.5562 69.7077 77.5562 69.7077L77.443 83.3661C77.443 83.3661 77.0832 90.6117 77.443 93.1934C77.8028 95.7752 78.2059 105.603 78.2059 105.603C78.2059 105.603 80.4578 115.18 79.625 118.595C78.7922 122.009 79.7083 129.671 81.1241 129.005C82.5399 128.339 95.6153 125.757 96.2816 125.257C96.9478 124.758 96.6147 120.094 96.2816 119.511C95.9484 118.928 93.9496 111.016 94.1162 109.184C94.2828 107.352 93.5332 91.2779 93.5332 91.2779C93.5332 91.2779 94.7825 74.1217 95.2822 70.1241C95.7819 66.1265 94.2828 54.3837 92.9502 54.2171C91.6177 54.0505 87.7167 44.9727 80.5544 55.3831Z" fill="#5F5570"/>
<g opacity="0.1">
<path opacity="0.1" d="M105.742 18.4854C104.743 18.6652 104.004 19.6147 103.744 20.6074C103.484 21.6001 103.554 22.6462 103.557 23.6755C103.564 25.8855 103.201 28.081 102.484 30.1716L98.0372 21.207C97.9505 21.0305 97.8606 20.8473 97.774 20.664C97.9798 21.281 98.2349 21.8803 98.5369 22.4563L102.984 31.4208C103.701 29.3303 104.063 27.1347 104.057 24.9248C104.057 23.8954 103.974 22.8494 104.243 21.8566C104.513 20.8639 105.243 19.9145 106.242 19.7346C106.565 20.2399 106.853 20.7663 107.105 21.3103C106.767 20.3171 106.309 19.3685 105.742 18.4854Z" fill="black"/>
<path opacity="0.1" d="M128.785 7.67529C128.981 8.49486 128.953 9.35183 128.705 10.1571C128.589 10.5603 128.388 10.934 128.116 11.2531C127.359 12.0893 126.117 12.1892 124.977 12.2325L117.295 12.519C116.676 12.5149 116.059 12.5922 115.46 12.7489C113.201 13.4451 112.155 15.8503 112.072 18.0123C111.989 20.1744 110.739 22.5962 108.318 22.7861C108.077 22.8271 107.829 22.7721 107.628 22.6329C107.705 22.8494 107.778 23.0693 107.841 23.2991C107.875 23.5206 107.977 23.7264 108.131 23.8888C108.332 24.028 108.58 24.083 108.821 24.042C111.259 23.8521 112.485 21.4536 112.575 19.2683C112.665 17.0829 113.704 14.701 115.963 14.0048C116.562 13.8481 117.179 13.7708 117.798 13.7749L125.48 13.4884C126.606 13.4451 127.862 13.3452 128.619 12.509C128.891 12.1899 129.092 11.8162 129.208 11.413C129.397 10.7942 129.457 10.1432 129.384 9.5003C129.311 8.8574 129.108 8.23626 128.785 7.67529Z" fill="black"/>
</g>
<path opacity="0.1" d="M116.276 144.309C116.276 144.309 119.161 142.81 120.274 142.893C121.386 142.977 131.377 155.682 131.377 155.682L116.276 144.309Z" fill="black"/>
<path opacity="0.1" d="M86.684 58.3213C86.684 58.3213 81.4106 60.5733 81.5505 62.129C81.6904 63.6847 86.684 58.3213 86.684 58.3213Z" fill="black"/>
<path opacity="0.1" d="M84.1156 65.6835C84.1156 65.6835 78.5823 72.7592 79.8049 72.9957C81.0275 73.2322 84.1156 65.6835 84.1156 65.6835Z" fill="black"/>
<path opacity="0.1" d="M102.624 76.287C102.624 76.287 103.131 92.1107 99.0732 94.1095L102.624 76.287Z" fill="black"/>
<path opacity="0.1" d="M81.5372 118.538C81.5372 118.538 85.4415 116.319 86.3376 116.762C87.2337 117.206 81.5372 118.538 81.5372 118.538Z" fill="black"/>
<path opacity="0.1" d="M82.22 121.606C82.22 121.606 84.6852 121.783 85.8545 121.273C87.0238 120.763 82.22 121.606 82.22 121.606Z" fill="black"/>
<path opacity="0.1" d="M141.068 63.3383C141.068 63.3383 144.126 72.1229 145.888 72.1229L141.068 63.3383Z" fill="black"/>
<path opacity="0.1" d="M97.5807 231.583C97.5807 231.583 103.317 230.027 104.163 231.583C105.01 233.138 97.5807 231.583 97.5807 231.583Z" fill="black"/>
<path opacity="0.1" d="M79.3451 208.517C79.3451 208.517 77.916 210.705 79.8048 211.372C81.6937 212.038 79.3451 208.517 79.3451 208.517Z" fill="black"/>
<path opacity="0.1" d="M117.449 177.975C117.449 177.975 121.779 181.833 123.825 181.946C125.87 182.059 117.449 177.975 117.449 177.975Z" fill="black"/>
<path d="M288.025 19.9313C288.025 19.9313 259.979 18.229 263.283 37.8837C263.283 37.8837 262.617 41.3583 265.775 42.9373C265.775 42.9373 265.825 41.4782 268.654 41.9746C269.659 42.1415 270.681 42.1907 271.698 42.1211C273.072 42.0278 274.377 41.4912 275.419 40.5921C275.419 40.5921 283.305 37.3374 286.369 24.4485C286.369 24.4485 288.638 21.6369 288.548 20.914L283.814 22.9361C283.814 22.9361 285.433 26.3507 284.148 29.189C284.148 29.189 283.994 23.0594 283.085 23.1926C282.898 23.2226 280.623 24.3752 280.623 24.3752C280.623 24.3752 283.408 30.325 281.306 34.6457C281.306 34.6457 282.105 27.3168 279.757 24.805L276.426 26.7505C276.426 26.7505 279.68 32.8934 277.475 37.907C277.475 37.907 278.041 30.2184 275.726 27.2235L272.708 29.5788C272.708 29.5788 275.763 35.6351 273.9 39.7926C273.9 39.7926 273.657 30.8413 272.052 30.1651C272.052 30.1651 269.413 32.497 269.01 33.4497C269.01 33.4497 271.102 37.8471 269.803 40.1657C269.803 40.1657 269.007 34.2026 268.354 34.1693C268.354 34.1693 265.722 38.1202 265.449 40.8319C265.449 40.8319 265.562 36.801 267.717 33.7929C267.717 33.7929 265.172 34.2293 263.687 35.8816C263.687 35.8816 264.096 33.0866 268.35 32.8434C268.35 32.8434 270.522 29.8453 271.105 29.662C271.105 29.662 266.858 29.3089 264.283 30.4482C264.283 30.4482 266.552 27.8132 271.885 29.0124L274.883 26.5806C274.883 26.5806 269.29 25.8144 266.921 26.6605C266.921 26.6605 269.65 24.3286 275.686 26.0276L278.931 24.0854C278.931 24.0854 274.164 23.0594 271.325 23.4192C271.325 23.4192 274.323 21.8035 279.88 23.5557L282.212 22.513C282.212 22.513 278.721 21.8268 277.698 21.7202C276.675 21.6136 276.619 21.3271 276.619 21.3271C278.832 20.9583 281.104 21.2109 283.181 22.0566C283.181 22.0566 288.112 20.2278 288.025 19.9313Z" fill="#27359E"/>
<path d="M232.356 16.1635C232.356 16.1635 219.697 15.4006 221.176 24.2819C221.176 24.2819 220.879 25.8509 222.302 26.5638C222.302 26.5638 222.325 25.8976 223.601 26.1274C224.056 26.2057 224.519 26.228 224.98 26.1941C225.595 26.148 226.179 25.9051 226.646 25.5012C226.646 25.5012 230.207 24.0287 231.593 18.2056C231.593 18.2056 232.619 16.9364 232.592 16.6099L230.447 17.5227C230.447 17.5227 231.176 19.0651 230.603 20.3476C230.603 20.3476 230.533 17.5793 230.12 17.6426C230.037 17.6426 229.011 18.1789 229.011 18.1789C229.011 18.1789 230.267 20.8673 229.317 22.8195C229.317 22.8195 229.681 19.5081 228.618 18.3722L227.115 19.2516C227.115 19.2516 228.585 22.0266 227.588 24.2919C227.588 24.2919 227.845 20.8173 226.799 19.4648L225.436 20.5308C225.436 20.5308 226.816 23.2658 225.973 25.1447C225.973 25.1447 225.863 21.1005 225.14 20.794C225.14 20.794 223.947 21.8467 223.764 22.2798C223.764 22.2798 224.71 24.2786 224.124 25.3146C224.124 25.3146 223.764 22.6196 223.458 22.6062C223.458 22.6062 222.268 24.3918 222.145 25.6044C222.203 24.4735 222.557 23.3775 223.171 22.4264C222.485 22.5556 221.851 22.8834 221.349 23.3691C221.349 23.3691 221.535 22.1066 223.464 21.9966C223.464 21.9966 224.447 20.6408 224.71 20.5608C224.71 20.5608 222.791 20.3976 221.625 20.9139C221.625 20.9139 222.651 19.7247 225.06 20.2477L226.393 19.1483C226.393 19.1483 223.864 18.8152 222.795 19.185C222.795 19.185 224.027 18.1323 226.752 18.8985L228.221 18.0224C228.221 18.0224 226.066 17.5593 224.784 17.7259C224.784 17.7259 226.136 16.9963 228.651 17.7858L229.697 17.3161C229.697 17.3161 228.121 17.0063 227.658 16.9563C227.195 16.9064 227.172 16.7798 227.172 16.7798C228.172 16.6155 229.198 16.7308 230.137 17.1129C230.137 17.1129 232.396 16.3034 232.356 16.1635Z" fill="#27359E"/>
<path opacity="0.1" d="M282.029 242.329C286.983 242.329 291 241.651 291 240.814C291 239.977 286.983 239.298 282.029 239.298C277.074 239.298 273.057 239.977 273.057 240.814C273.057 241.651 277.074 242.329 282.029 242.329Z" fill="#27359E"/>
<path opacity="0.1" d="M8.97122 219.767C13.9259 219.767 17.9424 219.088 17.9424 218.251C17.9424 217.414 13.9259 216.735 8.97122 216.735C4.01655 216.735 0 217.414 0 218.251C0 219.088 4.01655 219.767 8.97122 219.767Z" fill="#27359E"/>
<path opacity="0.1" d="M275.786 212.971C280.741 212.971 284.757 212.292 284.757 211.455C284.757 210.618 280.741 209.939 275.786 209.939C270.831 209.939 266.815 210.618 266.815 211.455C266.815 212.292 270.831 212.971 275.786 212.971Z" fill="#27359E"/>
<path opacity="0.1" d="M43.6701 227.898C48.6248 227.898 52.6414 227.22 52.6414 226.383C52.6414 225.545 48.6248 224.867 43.6701 224.867C38.7155 224.867 34.6989 225.545 34.6989 226.383C34.6989 227.22 38.7155 227.898 43.6701 227.898Z" fill="#27359E"/>
<path opacity="0.1" d="M235.797 229.201C240.752 229.201 244.768 228.522 244.768 227.685C244.768 226.848 240.752 226.169 235.797 226.169C230.842 226.169 226.826 226.848 226.826 227.685C226.826 228.522 230.842 229.201 235.797 229.201Z" fill="#27359E"/>
<path d="M262.394 259.323C269.792 259.323 275.789 258.308 275.789 257.057C275.789 255.806 269.792 254.792 262.394 254.792C254.996 254.792 248.999 255.806 248.999 257.057C248.999 258.308 254.996 259.323 262.394 259.323Z" fill="#27359E"/>
<path d="M267.931 253.353C268.541 252.855 268.986 252.184 269.207 251.427C269.373 250.661 269.047 249.762 268.314 249.465C267.494 249.152 266.618 249.718 265.955 250.291C265.292 250.864 264.529 251.521 263.66 251.401C264.107 250.995 264.442 250.481 264.632 249.908C264.822 249.334 264.86 248.722 264.743 248.129C264.704 247.884 264.599 247.654 264.439 247.463C263.986 246.977 263.16 247.187 262.617 247.57C260.885 248.789 260.402 251.141 260.392 253.26C260.219 252.493 260.365 251.697 260.359 250.928C260.352 250.158 260.142 249.262 259.479 248.856C259.07 248.636 258.611 248.527 258.147 248.539C257.367 248.512 256.501 248.589 255.971 249.159C255.305 249.865 255.482 251.054 256.055 251.824C256.628 252.593 257.504 253.09 258.31 253.629C258.956 254.013 259.506 254.538 259.919 255.165C259.969 255.251 260.01 255.343 260.039 255.438H264.923C266.014 254.882 267.026 254.18 267.931 253.353Z" fill="#27359E"/>
<path d="M44.1332 189.125C44.1332 189.125 45.9654 191.517 43.2904 195.121C40.6153 198.726 38.41 201.784 39.2928 204.036C39.2928 204.036 43.3304 197.327 46.6217 197.234C49.913 197.14 47.7477 193.169 44.1332 189.125Z" fill="#27359E"/>
<path opacity="0.1" d="M44.1332 189.125C44.2935 189.355 44.4192 189.608 44.5063 189.875C47.711 193.639 49.42 197.154 46.3385 197.244C43.4703 197.323 40.029 202.454 39.2029 203.75C39.2301 203.85 39.2623 203.949 39.2995 204.046C39.2995 204.046 43.337 197.337 46.6284 197.244C49.9197 197.15 47.7477 193.169 44.1332 189.125Z" fill="black"/>
<path d="M47.5345 192.183C47.5345 193.026 47.4412 193.709 47.3246 193.709C47.208 193.709 47.1147 193.043 47.1147 192.183C47.1147 191.324 47.2313 191.737 47.3479 191.737C47.4645 191.737 47.5345 191.34 47.5345 192.183Z" fill="#FFD037"/>
<path d="M48.7038 193.189C47.9643 193.592 47.318 193.836 47.2647 193.736C47.2114 193.636 47.761 193.223 48.5006 192.82C49.2401 192.416 48.9503 192.71 49.0036 192.82C49.0569 192.93 49.4434 192.79 48.7038 193.189Z" fill="#FFD037"/>
<path d="M34.4691 189.125C34.4691 189.125 32.6368 191.517 35.3119 195.121C37.9869 198.726 40.1922 201.784 39.3095 204.036C39.3095 204.036 35.2752 197.327 31.9806 197.234C28.6859 197.14 30.8546 193.169 34.4691 189.125Z" fill="#27359E"/>
<path opacity="0.1" d="M34.469 189.125C34.3084 189.356 34.1816 189.608 34.0926 189.875C30.8879 193.639 29.1823 197.154 32.2604 197.244C35.132 197.323 38.5732 202.454 39.3994 203.75C39.3726 203.851 39.3392 203.95 39.2994 204.046C39.2994 204.046 35.2652 197.337 31.9706 197.244C28.6759 197.15 30.8546 193.169 34.469 189.125Z" fill="black"/>
<path d="M31.0645 192.183C31.0645 193.026 31.1611 193.709 31.2777 193.709C31.3943 193.709 31.4875 193.043 31.4875 192.183C31.4875 191.324 31.3709 191.737 31.2543 191.737C31.1377 191.737 31.0645 191.34 31.0645 192.183Z" fill="#FFD037"/>
<path d="M29.9018 193.189C30.6414 193.592 31.2843 193.836 31.341 193.736C31.3976 193.636 30.8413 193.223 30.1017 192.82C29.3622 192.416 29.6553 192.71 29.5987 192.82C29.542 192.93 29.1589 192.79 29.9018 193.189Z" fill="#FFD037"/>
<path d="M31.6475 203.743C31.6475 203.743 36.7644 203.586 38.3101 202.487C39.8558 201.388 46.182 200.079 46.5617 201.841C46.9415 203.603 54.2537 210.599 48.4772 210.645C42.7008 210.692 35.0521 209.746 33.513 208.807C31.9739 207.867 31.6475 203.743 31.6475 203.743Z" fill="#A8A8A8"/>
<path opacity="0.2" d="M48.5772 210.032C42.8007 210.079 35.152 209.133 33.6129 208.194C32.4437 207.481 31.9739 204.919 31.8174 203.736H31.6475C31.6475 203.736 31.9806 207.864 33.5097 208.8C35.0387 209.736 42.6974 210.685 48.4739 210.639C50.1396 210.639 50.7159 210.032 50.6859 209.153C50.4527 209.689 49.8164 210.022 48.5772 210.032Z" fill="black"/>
</g>
<defs>
<linearGradient id="paint0_linear" x1="108.814" y1="254.789" x2="108.814" y2="3.58125e-05" gradientUnits="userSpaceOnUse">
<stop stop-color="#808080" stop-opacity="0.25"/>
<stop offset="0.54" stop-color="#808080" stop-opacity="0.12"/>
<stop offset="1" stop-color="#808080" stop-opacity="0.1"/>
</linearGradient>
<clipPath id="clip0">
<rect width="291" height="266.985" fill="white"/>
</clipPath>
</defs>
</svg>
