<svg width="485" height="221" viewBox="0 0 485 221" fill="none" xmlns="http://www.w3.org/2000/svg">
<g clip-path="url(#clip0)">
<path d="M61.5375 217.807L60.7052 217.619C69.9854 176.349 93.3073 138.872 126.375 112.092C151.375 91.8764 181.109 78.3563 212.777 72.8044C244.444 67.2525 277.004 69.8515 307.39 80.3568C337.776 90.862 364.989 108.928 386.465 132.853C407.942 156.779 422.976 185.776 430.152 217.116L429.321 217.305C409.676 131.05 334.081 70.8091 245.486 70.8091C158.052 70.8091 80.6907 132.631 61.5375 217.807Z" fill="#3F3D56"/>
<path d="M383.749 116.971C396.544 116.971 406.917 106.598 406.917 93.802C406.917 81.0062 396.544 70.6332 383.749 70.6332C370.953 70.6332 360.58 81.0062 360.58 93.802C360.58 106.598 370.953 116.971 383.749 116.971Z" fill="#FF6584"/>
<path d="M374.947 186.431H374.094V220.13H374.947V186.431Z" fill="#3F3D56"/>
<path d="M382.821 190.726C382.875 202.509 374.585 212.1 374.585 212.1C374.585 212.1 366.206 202.586 366.152 190.803C366.098 179.019 374.388 169.428 374.388 169.428C374.388 169.428 382.766 178.942 382.821 190.726Z" fill="#27359E"/>
<path opacity="0.1" d="M382.821 190.726C382.875 202.509 374.585 212.1 374.585 212.1C374.585 212.1 366.206 202.586 366.152 190.803C366.098 179.019 374.388 169.428 374.388 169.428C374.388 169.428 382.766 178.942 382.821 190.726Z" fill="black"/>
<path opacity="0.4" d="M213.716 119.433C221.078 119.433 227.045 113.465 227.045 106.104C227.045 98.7422 221.078 92.7745 213.716 92.7745C206.355 92.7745 200.387 98.7422 200.387 106.104C200.387 113.465 206.355 119.433 213.716 119.433Z" fill="#27359E"/>
<path opacity="0.4" d="M189.047 121.82C194.212 121.82 198.398 117.634 198.398 112.47C198.398 107.306 194.212 103.12 189.047 103.12C183.883 103.12 179.697 107.306 179.697 112.47C179.697 117.634 183.883 121.82 189.047 121.82Z" fill="#27359E"/>
<path opacity="0.4" d="M88.8056 148.694C93.9696 148.694 98.1559 144.507 98.1559 139.343C98.1559 134.179 93.9696 129.993 88.8056 129.993C83.6416 129.993 79.4553 134.179 79.4553 139.343C79.4553 144.507 83.6416 148.694 88.8056 148.694Z" fill="#27359E"/>
<path opacity="0.4" d="M365.269 118.336C372.631 118.336 378.599 112.369 378.599 105.007C378.599 97.6456 372.631 91.678 365.269 91.678C357.908 91.678 351.94 97.6456 351.94 105.007C351.94 112.369 357.908 118.336 365.269 118.336Z" fill="#27359E"/>
<path d="M24.1564 216.383C24.879 219.054 27.354 220.708 27.354 220.708C27.354 220.708 28.6574 218.032 27.9349 215.361C27.2123 212.69 24.7373 211.035 24.7373 211.035C24.7373 211.035 23.4339 213.712 24.1564 216.383Z" fill="#3F3D56"/>
<path d="M25.2182 215.809C27.2009 217.739 27.4431 220.706 27.4431 220.706C27.4431 220.706 24.4706 220.544 22.4879 218.613C20.5051 216.683 20.2629 213.716 20.2629 213.716C20.2629 213.716 23.2354 213.879 25.2182 215.809Z" fill="#27359E"/>
<path d="M285.212 216.383C285.934 219.054 288.409 220.708 288.409 220.708C288.409 220.708 289.713 218.032 288.99 215.361C288.268 212.69 285.793 211.035 285.793 211.035C285.793 211.035 284.489 213.712 285.212 216.383Z" fill="#3F3D56"/>
<path d="M286.274 215.809C288.256 217.739 288.499 220.706 288.499 220.706C288.499 220.706 285.526 220.544 283.543 218.613C281.561 216.683 281.318 213.716 281.318 213.716C281.318 213.716 284.291 213.879 286.274 215.809Z" fill="#27359E"/>
<path d="M29.0646 196.305L27.2999 193.364L43.7712 179.245H86.1261V183.363L70.8313 199.835L53.1832 203.364L29.0646 196.305Z" fill="#3F3D56"/>
<path d="M93.4169 187.53V178.326H87.8716V181.229L86.1261 179.245L72.0078 193.364L69.6545 195.716L66.7133 207.482L72.0078 220.423H99.0676V193.952L93.4169 187.53Z" fill="#CCCCCC"/>
<path d="M72.0077 193.363H27.2999V220.423H72.0077V193.363Z" fill="#F2F2F2"/>
<path d="M65.831 201.893H56.4188V210.129H65.831V201.893Z" fill="#3F3D56"/>
<path d="M52.5951 201.599H44.3595V220.423H52.5951V201.599Z" fill="#CCCCCC"/>
<path d="M34.9473 204.54V201.599H31.4179V204.54H34.653H34.9473Z" fill="#3F3D56"/>
<path d="M34.653 206.893H31.4179V209.835H34.9473V206.893H34.653Z" fill="#3F3D56"/>
<path d="M40.8299 201.599H37.3004V204.54H40.8299V201.599Z" fill="#3F3D56"/>
<path d="M40.8299 206.893H37.3004V209.835H40.8299V206.893Z" fill="#3F3D56"/>
<path d="M84.6554 204.835V201.893H81.1255V204.835H84.361H84.6554Z" fill="#3F3D56"/>
<path d="M84.361 207.188H81.1255V210.129H84.6554V207.188H84.361Z" fill="#3F3D56"/>
<path d="M90.5379 201.893H87.0083V204.835H90.5379V201.893Z" fill="#3F3D56"/>
<path d="M90.5379 207.188H87.0083V210.129H90.5379V207.188Z" fill="#3F3D56"/>
<path d="M199.262 196.305L197.498 193.364L213.969 179.245H256.324V183.363L241.029 199.835L223.381 203.364L199.262 196.305Z" fill="#3F3D56"/>
<path d="M263.615 187.53V178.326H258.069V181.229L256.324 179.245L242.206 193.364L239.852 195.716L236.911 207.482L242.206 220.423H269.265V193.952L263.615 187.53Z" fill="#CCCCCC"/>
<path d="M242.206 193.363H197.498V220.423H242.206V193.363Z" fill="#F2F2F2"/>
<path d="M236.029 201.893H226.617V210.129H236.029V201.893Z" fill="#3F3D56"/>
<path d="M222.793 201.599H214.557V220.423H222.793V201.599Z" fill="#CCCCCC"/>
<path d="M205.145 204.54V201.599H201.616V204.54H204.851H205.145Z" fill="#3F3D56"/>
<path d="M204.851 206.893H201.616V209.835H205.145V206.893H204.851Z" fill="#3F3D56"/>
<path d="M211.028 201.599H207.498V204.54H211.028V201.599Z" fill="#3F3D56"/>
<path d="M211.028 206.893H207.498V209.835H211.028V206.893Z" fill="#3F3D56"/>
<path d="M254.853 204.835V201.893H251.323V204.835H254.559H254.853Z" fill="#3F3D56"/>
<path d="M254.559 207.188H251.323V210.129H254.853V207.188H254.559Z" fill="#3F3D56"/>
<path d="M260.736 201.893H257.206V204.835H260.736V201.893Z" fill="#3F3D56"/>
<path d="M260.736 207.188H257.206V210.129H260.736V207.188Z" fill="#3F3D56"/>
<path d="M119.657 146.891L116.716 144.538L133.187 129.831H174.953V142.773L147.893 161.009L119.657 146.891Z" fill="#3F3D56"/>
<path d="M182.568 138.081V130.125H177.023V132.074L174.953 129.831L161.423 144.538L156.129 148.067L147.92 208.043L160.3 220.423H189.072V145.126L182.568 138.081Z" fill="#CCCCCC"/>
<path d="M161.423 144.538H116.715V220.423H161.423V144.538Z" fill="#F2F2F2"/>
<path d="M142.305 201.893H134.069V220.423H142.305V201.893Z" fill="#CCCCCC"/>
<path d="M125.245 207.188V204.246H121.716V207.188H124.951H125.245Z" fill="#3F3D56"/>
<path d="M124.951 209.54H121.716V212.482H125.245V209.54H124.951Z" fill="#3F3D56"/>
<path d="M131.128 204.246H127.598V207.188H131.128V204.246Z" fill="#3F3D56"/>
<path d="M131.128 209.541H127.598V212.482H131.128V209.541Z" fill="#3F3D56"/>
<path d="M149.364 207.188V204.246H145.834V207.188H149.07H149.364Z" fill="#3F3D56"/>
<path d="M149.07 209.54H145.834V212.482H149.364V209.54H149.07Z" fill="#3F3D56"/>
<path d="M155.247 204.246H151.717V207.188H155.247V204.246Z" fill="#3F3D56"/>
<path d="M155.247 209.541H151.717V212.482H155.247V209.541Z" fill="#3F3D56"/>
<path d="M174.071 148.361V145.42H170.541V148.361H173.777H174.071Z" fill="#3F3D56"/>
<path d="M173.777 150.715H170.541V153.656H174.071V150.715H173.777Z" fill="#3F3D56"/>
<path d="M179.953 145.42H176.424V148.362H179.953V145.42Z" fill="#3F3D56"/>
<path d="M179.953 150.715H176.424V153.656H179.953V150.715Z" fill="#3F3D56"/>
<path d="M174.071 164.833V161.891H170.541V164.833H173.777H174.071Z" fill="#3F3D56"/>
<path d="M173.777 167.186H170.541V170.127H174.071V167.186H173.777Z" fill="#3F3D56"/>
<path d="M179.953 161.892H176.424V164.833H179.953V161.892Z" fill="#3F3D56"/>
<path d="M179.953 167.186H176.424V170.127H179.953V167.186Z" fill="#3F3D56"/>
<path d="M174.071 181.304V178.363H170.541V181.304H173.777H174.071Z" fill="#3F3D56"/>
<path d="M173.777 183.657H170.541V186.598H174.071V183.657H173.777Z" fill="#3F3D56"/>
<path d="M179.953 178.363H176.424V181.304H179.953V178.363Z" fill="#3F3D56"/>
<path d="M179.953 183.657H176.424V186.598H179.953V183.657Z" fill="#3F3D56"/>
<path d="M174.071 197.775V194.834H170.541V197.775H173.777H174.071Z" fill="#3F3D56"/>
<path d="M173.777 200.128H170.541V203.07H174.071V200.128H173.777Z" fill="#3F3D56"/>
<path d="M179.953 194.834H176.424V197.775H179.953V194.834Z" fill="#3F3D56"/>
<path d="M179.953 200.128H176.424V203.07H179.953V200.128Z" fill="#3F3D56"/>
<path d="M155.835 148.362H121.716V155.421H155.835V148.362Z" fill="#3F3D56"/>
<path d="M155.835 162.48H121.716V169.539H155.835V162.48Z" fill="#3F3D56"/>
<path d="M155.835 176.598H121.716V183.657H155.835V176.598Z" fill="#3F3D56"/>
<path d="M155.835 190.716H121.716V197.775H155.835V190.716Z" fill="#3F3D56"/>
<path d="M291.561 146.891L288.62 144.538L305.091 129.831H346.857V142.773L319.798 161.009L291.561 146.891Z" fill="#3F3D56"/>
<path d="M354.472 138.081V130.125H348.927V132.074L346.857 129.831L333.327 144.538L328.033 148.067L319.824 208.043L332.204 220.423H360.976V145.126L354.472 138.081Z" fill="#CCCCCC"/>
<path d="M333.327 144.538H288.62V220.423H333.327V144.538Z" fill="#F2F2F2"/>
<path d="M314.209 201.893H305.973V220.423H314.209V201.893Z" fill="#CCCCCC"/>
<path d="M297.149 207.188V204.246H293.62V207.188H296.855H297.149Z" fill="#3F3D56"/>
<path d="M296.855 209.54H293.62V212.482H297.149V209.54H296.855Z" fill="#3F3D56"/>
<path d="M303.032 204.246H299.502V207.188H303.032V204.246Z" fill="#3F3D56"/>
<path d="M303.032 209.541H299.502V212.482H303.032V209.541Z" fill="#3F3D56"/>
<path d="M321.268 207.188V204.246H317.739V207.188H320.974H321.268Z" fill="#3F3D56"/>
<path d="M320.974 209.54H317.739V212.482H321.268V209.54H320.974Z" fill="#3F3D56"/>
<path d="M327.151 204.246H323.621V207.188H327.151V204.246Z" fill="#3F3D56"/>
<path d="M327.151 209.541H323.621V212.482H327.151V209.541Z" fill="#3F3D56"/>
<path d="M345.975 148.361V145.42H342.445V148.361H345.681H345.975Z" fill="#3F3D56"/>
<path d="M345.681 150.715H342.445V153.656H345.975V150.715H345.681Z" fill="#3F3D56"/>
<path d="M351.858 145.42H348.328V148.362H351.858V145.42Z" fill="#3F3D56"/>
<path d="M351.858 150.715H348.328V153.656H351.858V150.715Z" fill="#3F3D56"/>
<path d="M345.975 164.833V161.891H342.445V164.833H345.681H345.975Z" fill="#3F3D56"/>
<path d="M345.681 167.186H342.445V170.127H345.975V167.186H345.681Z" fill="#3F3D56"/>
<path d="M351.858 161.892H348.328V164.833H351.858V161.892Z" fill="#3F3D56"/>
<path d="M351.858 167.186H348.328V170.127H351.858V167.186Z" fill="#3F3D56"/>
<path d="M345.975 181.304V178.363H342.445V181.304H345.681H345.975Z" fill="#3F3D56"/>
<path d="M345.681 183.657H342.445V186.598H345.975V183.657H345.681Z" fill="#3F3D56"/>
<path d="M351.858 178.363H348.328V181.304H351.858V178.363Z" fill="#3F3D56"/>
<path d="M351.858 183.657H348.328V186.598H351.858V183.657Z" fill="#3F3D56"/>
<path d="M345.975 197.775V194.834H342.445V197.775H345.681H345.975Z" fill="#3F3D56"/>
<path d="M345.681 200.128H342.445V203.07H345.975V200.128H345.681Z" fill="#3F3D56"/>
<path d="M351.858 194.834H348.328V197.775H351.858V194.834Z" fill="#3F3D56"/>
<path d="M351.858 200.128H348.328V203.07H351.858V200.128Z" fill="#3F3D56"/>
<path d="M327.739 148.362H293.62V155.421H327.739V148.362Z" fill="#3F3D56"/>
<path d="M327.739 162.48H293.62V169.539H327.739V162.48Z" fill="#3F3D56"/>
<path d="M327.739 176.598H293.62V183.657H327.739V176.598Z" fill="#3F3D56"/>
<path d="M327.739 190.716H293.62V197.775H327.739V190.716Z" fill="#3F3D56"/>
<path d="M385.831 146.891L382.89 144.538L399.361 129.831H441.127V142.773L414.068 161.009L385.831 146.891Z" fill="#3F3D56"/>
<path d="M448.742 138.081V130.125H443.197V132.074L441.127 129.831L427.597 144.538L422.303 148.067L414.094 208.043L426.474 220.423H455.246V145.126L448.742 138.081Z" fill="#CCCCCC"/>
<path d="M427.597 144.538H382.89V220.423H427.597V144.538Z" fill="#F2F2F2"/>
<path d="M408.479 201.893H400.243V220.423H408.479V201.893Z" fill="#CCCCCC"/>
<path d="M391.419 207.188V204.246H387.89V207.188H391.125H391.419Z" fill="#3F3D56"/>
<path d="M391.125 209.54H387.89V212.482H391.419V209.54H391.125Z" fill="#3F3D56"/>
<path d="M397.302 204.246H393.772V207.188H397.302V204.246Z" fill="#3F3D56"/>
<path d="M397.302 209.541H393.772V212.482H397.302V209.541Z" fill="#3F3D56"/>
<path d="M415.538 207.188V204.246H412.009V207.188H415.244H415.538Z" fill="#3F3D56"/>
<path d="M415.244 209.54H412.009V212.482H415.538V209.54H415.244Z" fill="#3F3D56"/>
<path d="M421.421 204.246H417.891V207.188H421.421V204.246Z" fill="#3F3D56"/>
<path d="M421.421 209.541H417.891V212.482H421.421V209.541Z" fill="#3F3D56"/>
<path d="M440.245 148.361V145.42H436.715V148.361H439.951H440.245Z" fill="#3F3D56"/>
<path d="M439.951 150.715H436.715V153.656H440.245V150.715H439.951Z" fill="#3F3D56"/>
<path d="M446.128 145.42H442.598V148.362H446.128V145.42Z" fill="#3F3D56"/>
<path d="M446.128 150.715H442.598V153.656H446.128V150.715Z" fill="#3F3D56"/>
<path d="M440.245 164.833V161.891H436.715V164.833H439.951H440.245Z" fill="#3F3D56"/>
<path d="M439.951 167.186H436.715V170.127H440.245V167.186H439.951Z" fill="#3F3D56"/>
<path d="M446.128 161.892H442.598V164.833H446.128V161.892Z" fill="#3F3D56"/>
<path d="M446.128 167.186H442.598V170.127H446.128V167.186Z" fill="#3F3D56"/>
<path d="M440.245 181.304V178.363H436.715V181.304H439.951H440.245Z" fill="#3F3D56"/>
<path d="M439.951 183.657H436.715V186.598H440.245V183.657H439.951Z" fill="#3F3D56"/>
<path d="M446.128 178.363H442.598V181.304H446.128V178.363Z" fill="#3F3D56"/>
<path d="M446.128 183.657H442.598V186.598H446.128V183.657Z" fill="#3F3D56"/>
<path d="M440.245 197.775V194.834H436.715V197.775H439.951H440.245Z" fill="#3F3D56"/>
<path d="M439.951 200.128H436.715V203.07H440.245V200.128H439.951Z" fill="#3F3D56"/>
<path d="M446.128 194.834H442.598V197.775H446.128V194.834Z" fill="#3F3D56"/>
<path d="M446.128 200.128H442.598V203.07H446.128V200.128Z" fill="#3F3D56"/>
<path d="M422.009 148.362H387.89V155.421H422.009V148.362Z" fill="#3F3D56"/>
<path d="M422.009 162.48H387.89V169.539H422.009V162.48Z" fill="#3F3D56"/>
<path d="M422.009 176.598H387.89V183.657H422.009V176.598Z" fill="#3F3D56"/>
<path d="M422.009 190.716H387.89V197.775H422.009V190.716Z" fill="#3F3D56"/>
<path d="M485 220.13H0V220.983H485V220.13Z" fill="#3F3D56"/>
<path d="M108.347 186.431H107.493V220.13H108.347V186.431Z" fill="#3F3D56"/>
<path d="M116.22 190.726C116.274 202.509 107.984 212.1 107.984 212.1C107.984 212.1 99.6055 202.586 99.5512 190.803C99.4969 179.019 107.787 169.428 107.787 169.428C107.787 169.428 116.166 178.942 116.22 190.726Z" fill="#27359E"/>
<path d="M193.659 186.431H192.806V220.13H193.659V186.431Z" fill="#3F3D56"/>
<path d="M201.532 190.726C201.586 202.509 193.296 212.1 193.296 212.1C193.296 212.1 184.918 202.586 184.863 190.803C184.809 179.019 193.099 169.428 193.099 169.428C193.099 169.428 201.478 178.942 201.532 190.726Z" fill="#27359E"/>
<path d="M363.857 186.431H363.003V220.13H363.857V186.431Z" fill="#3F3D56"/>
<path d="M371.73 190.726C371.784 202.509 363.494 212.1 363.494 212.1C363.494 212.1 355.116 202.586 355.061 190.803C355.007 179.019 363.297 169.428 363.297 169.428C363.297 169.428 371.676 178.942 371.73 190.726Z" fill="#27359E"/>
<path d="M250.605 73.3898C259.557 73.3898 266.814 71.757 266.814 69.7427C266.814 67.7285 259.557 66.0956 250.605 66.0956C241.652 66.0956 234.395 67.7285 234.395 69.7427C234.395 71.757 241.652 73.3898 250.605 73.3898Z" fill="#27359E"/>
<path d="M268.947 18.7687C268.947 29.1343 250.178 58.4389 250.178 58.4389C250.178 58.4389 231.409 29.1343 231.409 18.7687C231.409 13.7909 233.387 9.01703 236.907 5.49722C240.426 1.97741 245.2 0 250.178 0C255.156 0 259.93 1.97741 263.45 5.49722C266.969 9.01703 268.947 13.7909 268.947 18.7687Z" fill="#27359E"/>
<path d="M250.178 29.4327C256.068 29.4327 260.842 24.6583 260.842 18.7687C260.842 12.8791 256.068 8.10468 250.178 8.10468C244.288 8.10468 239.514 12.8791 239.514 18.7687C239.514 24.6583 244.288 29.4327 250.178 29.4327Z" fill="#F2F2F2"/>
</g>
<defs>
<clipPath id="clip0">
<rect width="485" height="220.983" fill="white"/>
</clipPath>
</defs>
</svg>
